<svg version="1.1" xmlns="http://www.w3.org/2000/svg" xmlns:xlink="http://www.w3.org/1999/xlink" width="1324" height="860"><defs/><g><g transform="translate(-22,-70) scale(1,1)"><rect fill="#C0C0C0" stroke="none" x="39" y="87" width="521.6" height="15" opacity="0.2"/></g><g transform="translate(-22,-70) scale(1,1)"><rect fill="#C0C0C0" stroke="none" x="39" y="101" width="1304" height="826" opacity="0.2"/></g><g transform="translate(-22,-70) scale(1,1)"><rect fill="#ffffff" stroke="none" x="32" y="95" width="1304" height="825"/></g><g transform="translate(-22,-70) scale(1,1)"><path fill="none" stroke="#000000" d="M 32 95 L 1336 95 L 1336 920 L 32 920 L 32 95 Z Z" stroke-miterlimit="10"/></g><g transform="translate(-22,-70) scale(1,1)"><rect fill="#ffffff" stroke="none" x="32" y="80" width="521.6" height="15"/></g><g transform="translate(-22,-70) scale(1,1)"><path fill="none" stroke="#000000" d="M 32 80 L 553.6 80 L 553.6 95 L 32 95 L 32 80 Z Z" stroke-miterlimit="10"/></g><g transform="translate(-22,-70) scale(1,1)"><rect fill="#ffffff" stroke="none" x="32" y="94" width="1304" height="826"/></g><g transform="translate(-22,-70) scale(1,1)"><path fill="none" stroke="#000000" d="M 32 94 L 1336 94 L 1336 920 L 32 920 L 32 94 Z Z" stroke-miterlimit="10"/></g><g transform="translate(-22,-70) scale(1,1)"><g><path fill="none" stroke="none"/><text fill="#000000" stroke="none" font-family="Arial" font-size="13px" font-style="normal" font-weight="bold" text-decoration="none" x="614.27099609375" y="114.5">UniversalCodeDefinition</text></g></g><g transform="translate(-22,-70) scale(1,1)"><rect fill="#C0C0C0" stroke="none" x="71" y="471" width="336" height="120" opacity="0.2"/></g><g transform="translate(-22,-70) scale(1,1)"><rect fill="#ffffff" stroke="none" x="64" y="464" width="336" height="120"/></g><g transform="translate(-22,-70) scale(1,1)"><path fill="none" stroke="#000000" d="M 64 464 L 400 464 L 400 584 L 64 584 L 64 464 Z Z" stroke-miterlimit="10"/></g><g transform="translate(-22,-70) scale(1,1)"><path fill="none" stroke="#000000" d="M 64 489 L 400 489" stroke-miterlimit="10"/></g><g transform="translate(-22,-70) scale(1,1)"><path fill="none" stroke="#000000" d="M 64 527 L 400 527" stroke-miterlimit="10"/></g><g transform="translate(-22,-70) scale(1,1)"><g><path fill="none" stroke="none"/><text fill="#000000" stroke="none" font-family="Arial" font-size="13px" font-style="normal" font-weight="bold" text-decoration="none" x="189.740478515625" y="483.5">UCDController</text></g></g><g transform="translate(-22,-70) scale(1,1)"><g><path fill="none" stroke="none"/><text fill="#000000" stroke="none" font-family="Arial" font-size="13px" font-style="normal" font-weight="normal" text-decoration="none" x="69" y="506.5">-model: RepositoryModel</text></g></g><g transform="translate(-22,-70) scale(1,1)"><g><path fill="none" stroke="none"/><text fill="#000000" stroke="none" font-family="Arial" font-size="13px" font-style="normal" font-weight="normal" text-decoration="none" x="69" y="521.5">-view: UCDView</text></g></g><g transform="translate(-22,-70) scale(1,1)"><g><path fill="none" stroke="none"/><text fill="#000000" stroke="none" font-family="Arial" font-size="13px" font-style="normal" font-weight="normal" text-decoration="none" x="69" y="544.5">+&lt;&lt;create&gt;&gt;(model: RepositoryModel, view: UCDView)</text></g></g><g transform="translate(-22,-70) scale(1,1)"><g><path fill="none" stroke="none"/><text fill="#000000" stroke="none" font-family="Arial" font-size="13px" font-style="normal" font-weight="normal" text-decoration="none" x="69" y="559.5">-isRepository(): bool</text></g></g><g transform="translate(-22,-70) scale(1,1)"><g><path fill="none" stroke="none"/><text fill="#000000" stroke="none" font-family="Arial" font-size="13px" font-style="normal" font-weight="normal" text-decoration="none" x="69" y="574.5">+execute(): string</text></g></g><g transform="translate(-22,-70) scale(1,1)"><rect fill="#C0C0C0" stroke="none" x="671" y="303" width="244.904296875" height="100" opacity="0.2"/></g><g transform="translate(-22,-70) scale(1,1)"><rect fill="#ffffff" stroke="none" x="664" y="296" width="244.904296875" height="100"/></g><g transform="translate(-22,-70) scale(1,1)"><path fill="none" stroke="#000000" d="M 664 296 L 908.904296875 296 L 908.904296875 396 L 664 396 L 664 296 Z Z" stroke-miterlimit="10"/></g><g transform="translate(-22,-70) scale(1,1)"><path fill="none" stroke="#000000" d="M 664 321 L 908.904296875 321" stroke-miterlimit="10"/></g><g transform="translate(-22,-70) scale(1,1)"><path fill="none" stroke="#000000" d="M 664 344 L 908.904296875 344" stroke-miterlimit="10"/></g><g transform="translate(-22,-70) scale(1,1)"><g><path fill="none" stroke="none"/><text fill="#000000" stroke="none" font-family="Arial" font-size="13px" font-style="normal" font-weight="bold" text-decoration="none" x="740.929931640625" y="315.5">AbstractSubject</text></g></g><g transform="translate(-22,-70) scale(1,1)"><g><path fill="none" stroke="none"/><text fill="#000000" stroke="none" font-family="Arial" font-size="13px" font-style="normal" font-weight="normal" text-decoration="none" x="669" y="338.5">#observer: array</text></g></g><g transform="translate(-22,-70) scale(1,1)"><g><path fill="none" stroke="none"/><text fill="#000000" stroke="none" font-family="Arial" font-size="13px" font-style="normal" font-weight="normal" text-decoration="none" x="669" y="361.5">+register(observer: ObserverInterface)</text></g></g><g transform="translate(-22,-70) scale(1,1)"><g><path fill="none" stroke="none"/><text fill="#000000" stroke="none" font-family="Arial" font-size="13px" font-style="normal" font-weight="normal" text-decoration="none" x="669" y="376.5">+unregister(observer: ObserverInterface)</text></g></g><g transform="translate(-22,-70) scale(1,1)"><g><path fill="none" stroke="none"/><text fill="#000000" stroke="none" font-family="Arial" font-size="13px" font-style="normal" font-weight="normal" text-decoration="none" x="669" y="391.5">+notify()</text></g></g><g transform="translate(-22,-70) scale(1,1)"><rect fill="#C0C0C0" stroke="none" x="447" y="471" width="207.37060546875" height="104" opacity="0.2"/></g><g transform="translate(-22,-70) scale(1,1)"><rect fill="#ffffff" stroke="none" x="440" y="464" width="207.37060546875" height="104"/></g><g transform="translate(-22,-70) scale(1,1)"><path fill="none" stroke="#000000" d="M 440 464 L 647.37060546875 464 L 647.37060546875 568 L 440 568 L 440 464 Z Z" stroke-miterlimit="10"/></g><g transform="translate(-22,-70) scale(1,1)"><path fill="none" stroke="#000000" d="M 440 489 L 647.37060546875 489" stroke-miterlimit="10"/></g><g transform="translate(-22,-70) scale(1,1)"><path fill="none" stroke="#000000" d="M 440 512 L 647.37060546875 512" stroke-miterlimit="10"/></g><g transform="translate(-22,-70) scale(1,1)"><g><path fill="none" stroke="none"/><text fill="#000000" stroke="none" font-family="Arial" font-size="13px" font-style="normal" font-weight="bold" text-decoration="none" x="515.514404296875" y="483.5">UCDView</text></g></g><g transform="translate(-22,-70) scale(1,1)"><g><path fill="none" stroke="none"/><text fill="#000000" stroke="none" font-family="Arial" font-size="13px" font-style="normal" font-weight="normal" text-decoration="none" x="445" y="506.5">-template: string</text></g></g><g transform="translate(-22,-70) scale(1,1)"><g><path fill="none" stroke="none"/><text fill="#000000" stroke="none" font-family="Arial" font-size="13px" font-style="normal" font-weight="normal" text-decoration="none" x="445" y="529.5">+&lt;&lt;create&gt;&gt;()</text></g></g><g transform="translate(-22,-70) scale(1,1)"><g><path fill="none" stroke="none"/><text fill="#000000" stroke="none" font-family="Arial" font-size="13px" font-style="normal" font-weight="normal" text-decoration="none" x="445" y="544.5">+update(subject: SubjectInterface)</text></g></g><g transform="translate(-22,-70) scale(1,1)"><g><path fill="none" stroke="none"/><text fill="#000000" stroke="none" font-family="Arial" font-size="13px" font-style="normal" font-weight="normal" text-decoration="none" x="445" y="559.5">+render(): string</text></g></g><g transform="translate(-22,-70) scale(1,1)"><rect fill="#C0C0C0" stroke="none" x="927" y="471" width="386.919921875" height="430" opacity="0.2"/></g><g transform="translate(-22,-70) scale(1,1)"><rect fill="#ffffff" stroke="none" x="920" y="464" width="386.919921875" height="430"/></g><g transform="translate(-22,-70) scale(1,1)"><path fill="none" stroke="#000000" d="M 920 464 L 1306.919921875 464 L 1306.919921875 894 L 920 894 L 920 464 Z Z" stroke-miterlimit="10"/></g><g transform="translate(-22,-70) scale(1,1)"><path fill="none" stroke="#000000" d="M 920 489 L 1306.919921875 489" stroke-miterlimit="10"/></g><g transform="translate(-22,-70) scale(1,1)"><path fill="none" stroke="#000000" d="M 920 707 L 1306.919921875 707" stroke-miterlimit="10"/></g><g transform="translate(-22,-70) scale(1,1)"><g><path fill="none" stroke="none"/><text fill="#000000" stroke="none" font-family="Arial" font-size="13px" font-style="normal" font-weight="bold" text-decoration="none" x="1064.687744140625" y="483.5">RepositoryModel</text></g></g><g transform="translate(-22,-70) scale(1,1)"><g><path fill="none" stroke="none"/><text fill="#000000" stroke="none" font-family="Arial" font-size="13px" font-style="normal" font-weight="normal" text-decoration="none" x="925" y="506.5">-author: string</text></g></g><g transform="translate(-22,-70) scale(1,1)"><g><path fill="none" stroke="none"/><text fill="#000000" stroke="none" font-family="Arial" font-size="13px" font-style="normal" font-weight="normal" text-decoration="none" x="925" y="521.5">-dependencies: array</text></g></g><g transform="translate(-22,-70) scale(1,1)"><g><path fill="none" stroke="none"/><text fill="#000000" stroke="none" font-family="Arial" font-size="13px" font-style="normal" font-weight="normal" text-decoration="none" x="925" y="536.5">-description: string</text></g></g><g transform="translate(-22,-70) scale(1,1)"><g><path fill="none" stroke="none"/><text fill="#000000" stroke="none" font-family="Arial" font-size="13px" font-style="normal" font-weight="normal" text-decoration="none" x="925" y="551.5">-devDependencies: array</text></g></g><g transform="translate(-22,-70) scale(1,1)"><g><path fill="none" stroke="none"/><text fill="#000000" stroke="none" font-family="Arial" font-size="13px" font-style="normal" font-weight="normal" text-decoration="none" x="925" y="566.5">-distribuable: bool = false</text></g></g><g transform="translate(-22,-70) scale(1,1)"><g><path fill="none" stroke="none"/><text fill="#000000" stroke="none" font-family="Arial" font-size="13px" font-style="normal" font-weight="normal" text-decoration="none" x="925" y="581.5">-keywords: array</text></g></g><g transform="translate(-22,-70) scale(1,1)"><g><path fill="none" stroke="none"/><text fill="#000000" stroke="none" font-family="Arial" font-size="13px" font-style="normal" font-weight="normal" text-decoration="none" x="925" y="596.5">-langage: string</text></g></g><g transform="translate(-22,-70) scale(1,1)"><g><path fill="none" stroke="none"/><text fill="#000000" stroke="none" font-family="Arial" font-size="13px" font-style="normal" font-weight="normal" text-decoration="none" x="925" y="611.5">-license: string</text></g></g><g transform="translate(-22,-70) scale(1,1)"><g><path fill="none" stroke="none"/><text fill="#000000" stroke="none" font-family="Arial" font-size="13px" font-style="normal" font-weight="normal" text-decoration="none" x="925" y="626.5">-package: string</text></g></g><g transform="translate(-22,-70) scale(1,1)"><g><path fill="none" stroke="none"/><text fill="#000000" stroke="none" font-family="Arial" font-size="13px" font-style="normal" font-weight="normal" text-decoration="none" x="925" y="641.5">-repository: string</text></g></g><g transform="translate(-22,-70) scale(1,1)"><g><path fill="none" stroke="none"/><text fill="#000000" stroke="none" font-family="Arial" font-size="13px" font-style="normal" font-weight="normal" text-decoration="none" x="925" y="656.5">-testable: bool = false</text></g></g><g transform="translate(-22,-70) scale(1,1)"><g><path fill="none" stroke="none"/><text fill="#000000" stroke="none" font-family="Arial" font-size="13px" font-style="normal" font-weight="normal" text-decoration="none" x="925" y="671.5">-vendor: string</text></g></g><g transform="translate(-22,-70) scale(1,1)"><g><path fill="none" stroke="none"/><text fill="#000000" stroke="none" font-family="Arial" font-size="13px" font-style="normal" font-weight="normal" text-decoration="none" x="925" y="686.5">-version: array</text></g></g><g transform="translate(-22,-70) scale(1,1)"><g><path fill="none" stroke="none"/><text fill="#000000" stroke="none" font-family="Arial" font-size="13px" font-style="normal" font-weight="normal" text-decoration="none" x="925" y="701.5">-homepage: string</text></g></g><g transform="translate(-22,-70) scale(1,1)"><g><path fill="none" stroke="none"/><text fill="#000000" stroke="none" font-family="Arial" font-size="13px" font-style="normal" font-weight="normal" text-decoration="none" x="925" y="724.5">+&lt;&lt;create&gt;&gt;()</text></g></g><g transform="translate(-22,-70) scale(1,1)"><g><path fill="none" stroke="none"/><text fill="#000000" stroke="none" font-family="Arial" font-size="13px" font-style="normal" font-weight="normal" text-decoration="none" x="925" y="739.5">-consume(url: string, subdir: string, ping: bool = false): string|bool</text></g></g><g transform="translate(-22,-70) scale(1,1)"><g><path fill="none" stroke="none"/><text fill="#000000" stroke="none" font-family="Arial" font-size="13px" font-style="normal" font-weight="normal" text-decoration="none" x="925" y="754.5">-consumeComposer(): bool</text></g></g><g transform="translate(-22,-70) scale(1,1)"><g><path fill="none" stroke="none"/><text fill="#000000" stroke="none" font-family="Arial" font-size="13px" font-style="normal" font-weight="normal" text-decoration="none" x="925" y="769.5">-consumeNpm()</text></g></g><g transform="translate(-22,-70) scale(1,1)"><g><path fill="none" stroke="none"/><text fill="#000000" stroke="none" font-family="Arial" font-size="13px" font-style="normal" font-weight="normal" text-decoration="none" x="925" y="784.5">-consumePackage(): bool</text></g></g><g transform="translate(-22,-70) scale(1,1)"><g><path fill="none" stroke="none"/><text fill="#000000" stroke="none" font-family="Arial" font-size="13px" font-style="normal" font-weight="normal" text-decoration="none" x="925" y="799.5">-consumePackagist()</text></g></g><g transform="translate(-22,-70) scale(1,1)"><g><path fill="none" stroke="none"/><text fill="#000000" stroke="none" font-family="Arial" font-size="13px" font-style="normal" font-weight="normal" text-decoration="none" x="925" y="814.5">-consumeTravis()</text></g></g><g transform="translate(-22,-70) scale(1,1)"><g><path fill="none" stroke="none"/><text fill="#000000" stroke="none" font-family="Arial" font-size="13px" font-style="normal" font-weight="normal" text-decoration="none" x="925" y="829.5">-setAvailable(available: stdClass)</text></g></g><g transform="translate(-22,-70) scale(1,1)"><g><path fill="none" stroke="none"/><text fill="#000000" stroke="none" font-family="Arial" font-size="13px" font-style="normal" font-weight="normal" text-decoration="none" x="925" y="844.5">+__get(name: string)</text></g></g><g transform="translate(-22,-70) scale(1,1)"><g><path fill="none" stroke="none"/><text fill="#000000" stroke="none" font-family="Arial" font-size="13px" font-style="normal" font-weight="normal" text-decoration="none" x="925" y="859.5">+get(): RepositoryModel</text></g></g><g transform="translate(-22,-70) scale(1,1)"><g><path fill="none" stroke="none"/><text fill="#000000" stroke="none" font-family="Arial" font-size="13px" font-style="normal" font-weight="normal" text-decoration="none" x="925" y="874.5">+set(vendor: string, repository: string): RepositoryModel</text></g></g><g transform="translate(-22,-70) scale(1,1)"><g><path fill="none" stroke="none"/><text fill="#000000" stroke="none" font-family="Arial" font-size="13px" font-style="normal" font-weight="normal" text-decoration="none" x="925" y="889.5">+jsonSerialize(): string</text></g></g><g transform="translate(-22,-70) scale(1,1)"><path fill="none" stroke="#000000" d="M 783 166.5 A 11.5 11.5 0 0 1 783 143.5" stroke-miterlimit="10"/></g><g transform="translate(-22,-70) scale(1,1)"><g><path fill="none" stroke="none"/><text fill="#000000" stroke="none" font-family="Arial" font-size="13px" font-style="normal" font-weight="bold" text-decoration="none" x="736.09912109375" y="186.5">SubjectInterface</text></g></g><g transform="translate(-22,-70) scale(1,1)"><path fill="none" stroke="#000000" d="M 540 151.5 A 11.5 11.5 0 0 1 540 174.5" stroke-miterlimit="10"/></g><g transform="translate(-22,-70) scale(1,1)"><g><path fill="none" stroke="none"/><text fill="#000000" stroke="none" font-family="Arial" font-size="13px" font-style="normal" font-weight="bold" text-decoration="none" x="488.483154296875" y="194.5">ObserverInterface</text></g></g><g transform="translate(-22,-70) scale(1,1)"><path fill="none" stroke="#000000" d="M 647 496 L 920 496" stroke-miterlimit="10"/></g><g transform="translate(-22,-70) scale(1,1)"><path fill="#FFFFFF" stroke="none" d="M 909.8373251423759 500.209517756016 L 920 496 L 909.8373251423758 491.790482243984 L 898 496"/></g><g transform="translate(-22,-70) scale(1,1)"><path fill="none" stroke="#000000" d="M 909.8373251423759 500.209517756016 L 920 496 L 909.8373251423758 491.790482243984 L 898 496 L 909.8373251423759 500.209517756016" stroke-miterlimit="10"/></g><g transform="translate(-22,-70) scale(1,1)"><path fill="none" stroke="#000000" d="M 543 463 L 542 295" stroke-miterlimit="10"/></g><g transform="translate(-22,-70) scale(1,1)"><path fill="none" stroke="#000000" d="M 728 163 L 552.00537109375 163" stroke-miterlimit="10"/></g><g transform="translate(-22,-70) scale(1,1)"><path fill="none" stroke="#000000" d="M 601 155 L 771.57177734375 155" stroke-miterlimit="10"/></g><g transform="translate(-22,-70) scale(1,1)"><path fill="none" stroke="#000000" d="M 440 496 L 400 496" stroke-miterlimit="10"/></g><g transform="translate(-22,-70) scale(1,1)"><path fill="#000000" stroke="none" d="M 410.16267485762415 491.790482243984 L 400 496 L 410.16267485762415 500.209517756016 L 422 496"/></g><g transform="translate(-22,-70) scale(1,1)"><path fill="none" stroke="#000000" d="M 410.16267485762415 491.790482243984 L 400 496 L 410.16267485762415 500.209517756016 L 422 496 L 410.16267485762415 491.790482243984" stroke-miterlimit="10"/></g><g transform="translate(-22,-70) scale(1,1)"><path fill="none" stroke="#000000" d="M 920 608 L 233 608 L 233 584" stroke-miterlimit="10"/></g><g transform="translate(-22,-70) scale(1,1)"><path fill="#000000" stroke="none" d="M 237.209517756016 594.1626748576241 L 233 584 L 228.790482243984 594.1626748576241 L 233 606"/></g><g transform="translate(-22,-70) scale(1,1)"><path fill="none" stroke="#000000" d="M 237.209517756016 594.1626748576241 L 233 584 L 228.790482243984 594.1626748576241 L 233 606 L 237.209517756016 594.1626748576241" stroke-miterlimit="10"/></g><g transform="translate(-22,-70) scale(1,1)"><path fill="none" stroke="#000000" d="M 1096 464 L 1096 432 L 800 432 L 800 396" stroke-miterlimit="10"/></g><g transform="translate(-22,-70) scale(1,1)"><path fill="#FFFFFF" stroke="none" d="M 808.419035512032 416.3253497152483 L 800 396 L 791.580964487968 416.3253497152483"/></g><g transform="translate(-22,-70) scale(1,1)"><path fill="none" stroke="#000000" d="M 808.419035512032 416.3253497152483 L 800 396 L 791.580964487968 416.3253497152483 L 808.419035512032 416.3253497152483" stroke-miterlimit="10"/></g><g transform="translate(-22,-70) scale(1,1)"><path fill="#C0C0C0" stroke="none" d="M 537.9072265625 290.5 C 537.9072265625 284.1487248 543.0559513625 279 549.4072265625 279 C 555.7585017625 279 560.9072265625 284.1487248 560.9072265625 290.5 C 560.9072265625 296.8512752 555.7585017625 302 549.4072265625 302 C 543.0559513625 302 537.9072265625 296.8512752 537.9072265625 290.5 Z" opacity="0.2"/></g><g transform="translate(-22,-70) scale(1,1)"><path fill="#ffffff" stroke="none" d="M 530.9072265625 283.5 C 530.9072265625 277.1487248 536.0559513625 272 542.4072265625 272 C 548.7585017625 272 553.9072265625 277.1487248 553.9072265625 283.5 C 553.9072265625 289.8512752 548.7585017625 295 542.4072265625 295 C 536.0559513625 295 530.9072265625 289.8512752 530.9072265625 283.5 Z"/></g><g transform="translate(-22,-70) scale(1,1)"><path fill="none" stroke="#000000" d="M 530.9072265625 283.5 C 530.9072265625 277.1487248 536.0559513625 272 542.4072265625 272 C 548.7585017625 272 553.9072265625 277.1487248 553.9072265625 283.5 C 553.9072265625 289.8512752 548.7585017625 295 542.4072265625 295 C 536.0559513625 295 530.9072265625 289.8512752 530.9072265625 283.5 Z" stroke-miterlimit="10"/></g><g transform="translate(-22,-70) scale(1,1)"><g><path fill="none" stroke="none"/><text fill="#000000" stroke="none" font-family="Arial" font-size="13px" font-style="normal" font-weight="bold" text-decoration="none" x="503.0263671875" y="314.5">ViewInterface</text></g></g><g transform="translate(-22,-70) scale(1,1)"><path fill="none" stroke="#000000" d="M 542 271 L 540 201" stroke-miterlimit="10"/></g><g transform="translate(-22,-70) scale(1,1)"><path fill="#FFFFFF" stroke="none" d="M 548.9960886657418 221.0766129792381 L 540 201 L 532.1648861188244 221.5575044805786"/></g><g transform="translate(-22,-70) scale(1,1)"><path fill="none" stroke="#000000" d="M 548.9960886657418 221.0766129792381 L 540 201 L 532.1648861188244 221.5575044805786 L 548.9960886657418 221.0766129792381" stroke-miterlimit="10"/></g><g transform="translate(-22,-70) scale(1,1)"><path fill="#C0C0C0" stroke="none" d="M 234.15087890625 290.5 C 234.15087890625 284.1487248 239.29960370625 279 245.65087890625 279 C 252.00215410625 279 257.15087890625 284.1487248 257.15087890625 290.5 C 257.15087890625 296.8512752 252.00215410625 302 245.65087890625 302 C 239.29960370625 302 234.15087890625 296.8512752 234.15087890625 290.5 Z" opacity="0.2"/></g><g transform="translate(-22,-70) scale(1,1)"><path fill="#ffffff" stroke="none" d="M 227.15087890625 283.5 C 227.15087890625 277.1487248 232.29960370625 272 238.65087890625 272 C 245.00215410625 272 250.15087890625 277.1487248 250.15087890625 283.5 C 250.15087890625 289.8512752 245.00215410625 295 238.65087890625 295 C 232.29960370625 295 227.15087890625 289.8512752 227.15087890625 283.5 Z"/></g><g transform="translate(-22,-70) scale(1,1)"><path fill="none" stroke="#000000" d="M 227.15087890625 283.5 C 227.15087890625 277.1487248 232.29960370625 272 238.65087890625 272 C 245.00215410625 272 250.15087890625 277.1487248 250.15087890625 283.5 C 250.15087890625 289.8512752 245.00215410625 295 238.65087890625 295 C 232.29960370625 295 227.15087890625 289.8512752 227.15087890625 283.5 Z" stroke-miterlimit="10"/></g><g transform="translate(-22,-70) scale(1,1)"><g><path fill="none" stroke="none"/><text fill="#000000" stroke="none" font-family="Arial" font-size="13px" font-style="normal" font-weight="bold" text-decoration="none" x="185.181396484375" y="314.5">ControllerInterface</text></g></g><g transform="translate(-22,-70) scale(1,1)"><path fill="none" stroke="#000000" d="M 238 464 L 238 295" stroke-miterlimit="10"/></g><g transform="translate(-22,-70) scale(1,1)"><path fill="#C0C0C0" stroke="none" d="M 1103.82177734375 290.5 C 1103.82177734375 284.1487248 1108.97050214375 279 1115.32177734375 279 C 1121.67305254375 279 1126.82177734375 284.1487248 1126.82177734375 290.5 C 1126.82177734375 296.8512752 1121.67305254375 302 1115.32177734375 302 C 1108.97050214375 302 1103.82177734375 296.8512752 1103.82177734375 290.5 Z" opacity="0.2"/></g><g transform="translate(-22,-70) scale(1,1)"><path fill="#ffffff" stroke="none" d="M 1096.82177734375 283.5 C 1096.82177734375 277.1487248 1101.97050214375 272 1108.32177734375 272 C 1114.67305254375 272 1119.82177734375 277.1487248 1119.82177734375 283.5 C 1119.82177734375 289.8512752 1114.67305254375 295 1108.32177734375 295 C 1101.97050214375 295 1096.82177734375 289.8512752 1096.82177734375 283.5 Z"/></g><g transform="translate(-22,-70) scale(1,1)"><path fill="none" stroke="#000000" d="M 1096.82177734375 283.5 C 1096.82177734375 277.1487248 1101.97050214375 272 1108.32177734375 272 C 1114.67305254375 272 1119.82177734375 277.1487248 1119.82177734375 283.5 C 1119.82177734375 289.8512752 1114.67305254375 295 1108.32177734375 295 C 1101.97050214375 295 1096.82177734375 289.8512752 1096.82177734375 283.5 Z" stroke-miterlimit="10"/></g><g transform="translate(-22,-70) scale(1,1)"><g><path fill="none" stroke="none"/><text fill="#000000" stroke="none" font-family="Arial" font-size="13px" font-style="normal" font-weight="bold" text-decoration="none" x="1034.25732421875" y="314.5">RepositoryModelInterface</text></g></g><g transform="translate(-22,-70) scale(1,1)"><path fill="none" stroke="#000000" d="M 1108 464 L 1108 295" stroke-miterlimit="10"/></g><g transform="translate(-22,-70) scale(1,1)"><path fill="none" stroke="#000000" d="M 1104 272 L 1104 152 L 838 152" stroke-miterlimit="10"/></g><g transform="translate(-22,-70) scale(1,1)"><path fill="#FFFFFF" stroke="none" d="M 858.3253497152483 143.58096448796803 L 838 152 L 858.3253497152483 160.41903551203197"/></g><g transform="translate(-22,-70) scale(1,1)"><path fill="none" stroke="#000000" d="M 858.3253497152483 143.58096448796803 L 838 152 L 858.3253497152483 160.41903551203197 L 858.3253497152483 143.58096448796803" stroke-miterlimit="10"/></g></g></svg>