<svg version="1.1" xmlns="http://www.w3.org/2000/svg" xmlns:xlink="http://www.w3.org/1999/xlink" width="1212" height="1540"><defs/><g><g transform="translate(-230,-30) scale(1,1)"><path fill="#C0C0C0" stroke="none" d="M 247 57 L 1428 57 L 1428 1566 L 247 1566" opacity="0.2"/></g><g transform="translate(-230,-30) scale(1,1)"><path fill="#C0C0C0" stroke="none" d="M 247 57 L 257 47 L 1438 47 L 1428 57" opacity="0.2"/></g><g transform="translate(-230,-30) scale(1,1)"><path fill="#C0C0C0" stroke="none" d="M 1438 47 L 1428 57 L 1428 1566 L 1438 1556" opacity="0.2"/></g><g transform="translate(-230,-30) scale(1,1)"><path fill="#ffffff" stroke="none" d="M 240 50 L 1421 50 L 1421 1559 L 240 1559"/></g><g transform="translate(-230,-30) scale(1,1)"><path fill="#ffffff" stroke="none" d="M 240 50 L 250 40 L 1431 40 L 1421 50"/></g><g transform="translate(-230,-30) scale(1,1)"><path fill="#ffffff" stroke="none" d="M 1431 40 L 1421 50 L 1421 1559 L 1431 1549"/></g><g transform="translate(-230,-30) scale(1,1)"><path fill="none" stroke="#000000" d="M 240 50 L 1421 50 L 1421 1559 L 240 1559 L 240 50" stroke-miterlimit="10"/></g><g transform="translate(-230,-30) scale(1,1)"><path fill="none" stroke="#000000" d="M 240 50 L 250 40 L 1431 40 L 1421 50 L 240 50" stroke-miterlimit="10"/></g><g transform="translate(-230,-30) scale(1,1)"><path fill="none" stroke="#000000" d="M 1431 40 L 1421 50 L 1421 1559 L 1431 1549 L 1431 40" stroke-miterlimit="10"/></g><g transform="translate(-230,-30) scale(1,1)"><g><path fill="none" stroke="none"/><text fill="#000000" stroke="none" font-family="Arial" font-size="13px" font-style="normal" font-weight="bold" text-decoration="none" x="755.129638671875" y="69.5">universal-code-description</text></g></g><g transform="translate(-230,-30) scale(1,1)"><path fill="#C0C0C0" stroke="none" d="M 399 304 L 446.72998046875 304 L 446.72998046875 337 L 399 337" opacity="0.2"/></g><g transform="translate(-230,-30) scale(1,1)"><path fill="#C0C0C0" stroke="none" d="M 399 304 L 409 294 L 456.72998046875 294 L 446.72998046875 304" opacity="0.2"/></g><g transform="translate(-230,-30) scale(1,1)"><path fill="#C0C0C0" stroke="none" d="M 456.72998046875 294 L 446.72998046875 304 L 446.72998046875 337 L 456.72998046875 327" opacity="0.2"/></g><g transform="translate(-230,-30) scale(1,1)"><path fill="#ffffff" stroke="none" d="M 392 297 L 439.72998046875 297 L 439.72998046875 330 L 392 330"/></g><g transform="translate(-230,-30) scale(1,1)"><path fill="#ffffff" stroke="none" d="M 392 297 L 402 287 L 449.72998046875 287 L 439.72998046875 297"/></g><g transform="translate(-230,-30) scale(1,1)"><path fill="#ffffff" stroke="none" d="M 449.72998046875 287 L 439.72998046875 297 L 439.72998046875 330 L 449.72998046875 320"/></g><g transform="translate(-230,-30) scale(1,1)"><path fill="none" stroke="#000000" d="M 392 297 L 439.72998046875 297 L 439.72998046875 330 L 392 330 L 392 297" stroke-miterlimit="10"/></g><g transform="translate(-230,-30) scale(1,1)"><path fill="none" stroke="#000000" d="M 392 297 L 402 287 L 449.72998046875 287 L 439.72998046875 297 L 392 297" stroke-miterlimit="10"/></g><g transform="translate(-230,-30) scale(1,1)"><path fill="none" stroke="#000000" d="M 449.72998046875 287 L 439.72998046875 297 L 439.72998046875 330 L 449.72998046875 320 L 449.72998046875 287" stroke-miterlimit="10"/></g><g transform="translate(-230,-30) scale(1,1)"><g><path fill="none" stroke="none"/><text fill="#000000" stroke="none" font-family="Arial" font-size="13px" font-style="normal" font-weight="bold" text-decoration="none" x="407.700439453125" y="316.5">src</text></g></g><g transform="translate(-230,-30) scale(1,1)"><path fill="#C0C0C0" stroke="none" d="M 599 304 L 669.11181640625 304 L 669.11181640625 337 L 599 337" opacity="0.2"/></g><g transform="translate(-230,-30) scale(1,1)"><path fill="#C0C0C0" stroke="none" d="M 599 304 L 609 294 L 679.11181640625 294 L 669.11181640625 304" opacity="0.2"/></g><g transform="translate(-230,-30) scale(1,1)"><path fill="#C0C0C0" stroke="none" d="M 679.11181640625 294 L 669.11181640625 304 L 669.11181640625 337 L 679.11181640625 327" opacity="0.2"/></g><g transform="translate(-230,-30) scale(1,1)"><path fill="#ffffff" stroke="none" d="M 592 297 L 662.11181640625 297 L 662.11181640625 330 L 592 330"/></g><g transform="translate(-230,-30) scale(1,1)"><path fill="#ffffff" stroke="none" d="M 592 297 L 602 287 L 672.11181640625 287 L 662.11181640625 297"/></g><g transform="translate(-230,-30) scale(1,1)"><path fill="#ffffff" stroke="none" d="M 672.11181640625 287 L 662.11181640625 297 L 662.11181640625 330 L 672.11181640625 320"/></g><g transform="translate(-230,-30) scale(1,1)"><path fill="none" stroke="#000000" d="M 592 297 L 662.11181640625 297 L 662.11181640625 330 L 592 330 L 592 297" stroke-miterlimit="10"/></g><g transform="translate(-230,-30) scale(1,1)"><path fill="none" stroke="#000000" d="M 592 297 L 602 287 L 672.11181640625 287 L 662.11181640625 297 L 592 297" stroke-miterlimit="10"/></g><g transform="translate(-230,-30) scale(1,1)"><path fill="none" stroke="#000000" d="M 672.11181640625 287 L 662.11181640625 297 L 662.11181640625 330 L 672.11181640625 320 L 672.11181640625 287" stroke-miterlimit="10"/></g><g transform="translate(-230,-30) scale(1,1)"><g><path fill="none" stroke="none"/><text fill="#000000" stroke="none" font-family="Arial" font-size="13px" font-style="normal" font-weight="bold" text-decoration="none" x="599.378662109375" y="316.5">Controller</text></g></g><g transform="translate(-230,-30) scale(1,1)"><path fill="#C0C0C0" stroke="none" d="M 795 304 L 842.72998046875 304 L 842.72998046875 337 L 795 337" opacity="0.2"/></g><g transform="translate(-230,-30) scale(1,1)"><path fill="#C0C0C0" stroke="none" d="M 795 304 L 805 294 L 852.72998046875 294 L 842.72998046875 304" opacity="0.2"/></g><g transform="translate(-230,-30) scale(1,1)"><path fill="#C0C0C0" stroke="none" d="M 852.72998046875 294 L 842.72998046875 304 L 842.72998046875 337 L 852.72998046875 327" opacity="0.2"/></g><g transform="translate(-230,-30) scale(1,1)"><path fill="#ffffff" stroke="none" d="M 788 297 L 835.72998046875 297 L 835.72998046875 330 L 788 330"/></g><g transform="translate(-230,-30) scale(1,1)"><path fill="#ffffff" stroke="none" d="M 788 297 L 798 287 L 845.72998046875 287 L 835.72998046875 297"/></g><g transform="translate(-230,-30) scale(1,1)"><path fill="#ffffff" stroke="none" d="M 845.72998046875 287 L 835.72998046875 297 L 835.72998046875 330 L 845.72998046875 320"/></g><g transform="translate(-230,-30) scale(1,1)"><path fill="none" stroke="#000000" d="M 788 297 L 835.72998046875 297 L 835.72998046875 330 L 788 330 L 788 297" stroke-miterlimit="10"/></g><g transform="translate(-230,-30) scale(1,1)"><path fill="none" stroke="#000000" d="M 788 297 L 798 287 L 845.72998046875 287 L 835.72998046875 297 L 788 297" stroke-miterlimit="10"/></g><g transform="translate(-230,-30) scale(1,1)"><path fill="none" stroke="#000000" d="M 845.72998046875 287 L 835.72998046875 297 L 835.72998046875 330 L 845.72998046875 320 L 845.72998046875 287" stroke-miterlimit="10"/></g><g transform="translate(-230,-30) scale(1,1)"><g><path fill="none" stroke="none"/><text fill="#000000" stroke="none" font-family="Arial" font-size="13px" font-style="normal" font-weight="bold" text-decoration="none" x="794.661376953125" y="316.5">Model</text></g></g><g transform="translate(-230,-30) scale(1,1)"><path fill="#C0C0C0" stroke="none" d="M 999 304 L 1046.72998046875 304 L 1046.72998046875 337 L 999 337" opacity="0.2"/></g><g transform="translate(-230,-30) scale(1,1)"><path fill="#C0C0C0" stroke="none" d="M 999 304 L 1009 294 L 1056.72998046875 294 L 1046.72998046875 304" opacity="0.2"/></g><g transform="translate(-230,-30) scale(1,1)"><path fill="#C0C0C0" stroke="none" d="M 1056.72998046875 294 L 1046.72998046875 304 L 1046.72998046875 337 L 1056.72998046875 327" opacity="0.2"/></g><g transform="translate(-230,-30) scale(1,1)"><path fill="#ffffff" stroke="none" d="M 992 297 L 1039.72998046875 297 L 1039.72998046875 330 L 992 330"/></g><g transform="translate(-230,-30) scale(1,1)"><path fill="#ffffff" stroke="none" d="M 992 297 L 1002 287 L 1049.72998046875 287 L 1039.72998046875 297"/></g><g transform="translate(-230,-30) scale(1,1)"><path fill="#ffffff" stroke="none" d="M 1049.72998046875 287 L 1039.72998046875 297 L 1039.72998046875 330 L 1049.72998046875 320"/></g><g transform="translate(-230,-30) scale(1,1)"><path fill="none" stroke="#000000" d="M 992 297 L 1039.72998046875 297 L 1039.72998046875 330 L 992 330 L 992 297" stroke-miterlimit="10"/></g><g transform="translate(-230,-30) scale(1,1)"><path fill="none" stroke="#000000" d="M 992 297 L 1002 287 L 1049.72998046875 287 L 1039.72998046875 297 L 992 297" stroke-miterlimit="10"/></g><g transform="translate(-230,-30) scale(1,1)"><path fill="none" stroke="#000000" d="M 1049.72998046875 287 L 1039.72998046875 297 L 1039.72998046875 330 L 1049.72998046875 320 L 1049.72998046875 287" stroke-miterlimit="10"/></g><g transform="translate(-230,-30) scale(1,1)"><g><path fill="none" stroke="none"/><text fill="#000000" stroke="none" font-family="Arial" font-size="13px" font-style="normal" font-weight="bold" text-decoration="none" x="1002.2763671875" y="316.5">View</text></g></g><g transform="translate(-230,-30) scale(1,1)"><path fill="none" stroke="#000000" d="M 647 287 L 647 232 L 432 232 L 432 287" stroke-miterlimit="10" stroke-dasharray="3"/></g><g transform="translate(-230,-30) scale(1,1)"><path fill="none" stroke="#000000" d="M 427.790482243984 276.83732514237585 L 432 287 L 436.209517756016 276.83732514237585" stroke-miterlimit="10"/></g><g transform="translate(-230,-30) scale(1,1)"><g><path fill="none" stroke="none"/><text fill="#000000" stroke="none" font-family="Arial" font-size="13px" font-style="normal" font-weight="normal" text-decoration="none" x="583" y="260">«deploy»</text></g></g><g transform="translate(-230,-30) scale(1,1)"><path fill="none" stroke="#000000" d="M 813 287 L 813 216 L 432 216 L 432 287" stroke-miterlimit="10" stroke-dasharray="3"/></g><g transform="translate(-230,-30) scale(1,1)"><path fill="none" stroke="#000000" d="M 427.790482243984 276.83732514237585 L 432 287 L 436.209517756016 276.83732514237585" stroke-miterlimit="10"/></g><g transform="translate(-230,-30) scale(1,1)"><g><path fill="none" stroke="none"/><text fill="#000000" stroke="none" font-family="Arial" font-size="13px" font-style="normal" font-weight="normal" text-decoration="none" x="751" y="260">«deploy»</text></g></g><g transform="translate(-230,-30) scale(1,1)"><path fill="none" stroke="#000000" d="M 1021 287 L 1021 200 L 432 200 L 432 287" stroke-miterlimit="10" stroke-dasharray="3"/></g><g transform="translate(-230,-30) scale(1,1)"><path fill="none" stroke="#000000" d="M 427.790482243984 276.83732514237585 L 432 287 L 436.209517756016 276.83732514237585" stroke-miterlimit="10"/></g><g transform="translate(-230,-30) scale(1,1)"><g><path fill="none" stroke="none"/><text fill="#000000" stroke="none" font-family="Arial" font-size="13px" font-style="normal" font-weight="normal" text-decoration="none" x="958" y="260">«deploy»</text></g></g><g transform="translate(-230,-30) scale(1,1)"><path fill="#C0C0C0" stroke="none" d="M 615.054052734375 383 L 642.494052734375 383 L 654.254052734375 394.76 L 654.254052734375 432 L 615.054052734375 432" opacity="0.2"/></g><g transform="translate(-230,-30) scale(1,1)"><path fill="#ffffff" stroke="none" d="M 608.054052734375 376 L 635.494052734375 376 L 647.254052734375 387.76 L 647.254052734375 425 L 608.054052734375 425"/></g><g transform="translate(-230,-30) scale(1,1)"><path fill="none" stroke="#000000" d="M 608.054052734375 376 L 635.494052734375 376 L 647.254052734375 387.76 L 647.254052734375 425 L 608.054052734375 425 L 608.054052734375 376" stroke-miterlimit="10"/></g><g transform="translate(-230,-30) scale(1,1)"><path fill="none" stroke="#000000" d="M 635.494052734375 376 L 635.494052734375 387.76 L 647.254052734375 387.76 L 635.494052734375 376" stroke-miterlimit="10"/></g><g transform="translate(-230,-30) scale(1,1)"><g><path fill="none" stroke="none"/><text fill="#000000" stroke="none" font-family="Arial" font-size="13px" font-style="normal" font-weight="bold" text-decoration="none" x="572.74365234375" y="444.5">UCDController.php</text></g></g><g transform="translate(-230,-30) scale(1,1)"><path fill="#C0C0C0" stroke="none" d="M 812.344091796875 383 L 839.784091796875 383 L 851.544091796875 394.76 L 851.544091796875 432 L 812.344091796875 432" opacity="0.2"/></g><g transform="translate(-230,-30) scale(1,1)"><path fill="#ffffff" stroke="none" d="M 805.344091796875 376 L 832.784091796875 376 L 844.544091796875 387.76 L 844.544091796875 425 L 805.344091796875 425"/></g><g transform="translate(-230,-30) scale(1,1)"><path fill="none" stroke="#000000" d="M 805.344091796875 376 L 832.784091796875 376 L 844.544091796875 387.76 L 844.544091796875 425 L 805.344091796875 425 L 805.344091796875 376" stroke-miterlimit="10"/></g><g transform="translate(-230,-30) scale(1,1)"><path fill="none" stroke="#000000" d="M 832.784091796875 376 L 832.784091796875 387.76 L 844.544091796875 387.76 L 832.784091796875 376" stroke-miterlimit="10"/></g><g transform="translate(-230,-30) scale(1,1)"><g><path fill="none" stroke="none"/><text fill="#000000" stroke="none" font-family="Arial" font-size="13px" font-style="normal" font-weight="bold" text-decoration="none" x="763.52099609375" y="444.5">RepositoryModel.php</text></g></g><g transform="translate(-230,-30) scale(1,1)"><path fill="#C0C0C0" stroke="none" d="M 812.4390625 495 L 839.8790625 495 L 851.6390625 506.76 L 851.6390625 544 L 812.4390625 544" opacity="0.2"/></g><g transform="translate(-230,-30) scale(1,1)"><path fill="#ffffff" stroke="none" d="M 805.4390625 488 L 832.8790625 488 L 844.6390625 499.76 L 844.6390625 537 L 805.4390625 537"/></g><g transform="translate(-230,-30) scale(1,1)"><path fill="none" stroke="#000000" d="M 805.4390625 488 L 832.8790625 488 L 844.6390625 499.76 L 844.6390625 537 L 805.4390625 537 L 805.4390625 488" stroke-miterlimit="10"/></g><g transform="translate(-230,-30) scale(1,1)"><path fill="none" stroke="#000000" d="M 832.8790625 488 L 832.8790625 499.76 L 844.6390625 499.76 L 832.8790625 488" stroke-miterlimit="10"/></g><g transform="translate(-230,-30) scale(1,1)"><g><path fill="none" stroke="none"/><text fill="#000000" stroke="none" font-family="Arial" font-size="13px" font-style="normal" font-weight="bold" text-decoration="none" x="738.32373046875" y="556.5">RepositoryModelInterface.php</text></g></g><g transform="translate(-230,-30) scale(1,1)"><path fill="#C0C0C0" stroke="none" d="M 998.810400390625 383 L 1026.250400390625 383 L 1038.010400390625 394.76 L 1038.010400390625 432 L 998.810400390625 432" opacity="0.2"/></g><g transform="translate(-230,-30) scale(1,1)"><path fill="#ffffff" stroke="none" d="M 991.8104003906251 376 L 1019.2504003906249 376 L 1031.010400390625 387.75999999999993 L 1031.010400390625 425 L 991.8104003906251 425"/></g><g transform="translate(-230,-30) scale(1,1)"><path fill="none" stroke="#000000" d="M 991.8104003906251 376 L 1019.2504003906249 376 L 1031.010400390625 387.75999999999993 L 1031.010400390625 425 L 991.8104003906251 425 L 991.8104003906251 376" stroke-miterlimit="10"/></g><g transform="translate(-230,-30) scale(1,1)"><path fill="none" stroke="#000000" d="M 1019.2504003906249 376 L 1019.2504003906249 387.75999999999993 L 1031.010400390625 387.75999999999993 L 1019.2504003906249 376" stroke-miterlimit="10"/></g><g transform="translate(-230,-30) scale(1,1)"><g><path fill="none" stroke="none"/><text fill="#000000" stroke="none" font-family="Arial" font-size="13px" font-style="normal" font-weight="bold" text-decoration="none" x="970.588623046875" y="444.5">UCDView.php</text></g></g><g transform="translate(-230,-30) scale(1,1)"><path fill="none" stroke="#000000" d="M 703 408 L 720 408 L 720 312 L 673 312" stroke-miterlimit="10" stroke-dasharray="3"/></g><g transform="translate(-230,-30) scale(1,1)"><path fill="none" stroke="#000000" d="M 683.1626748576241 307.790482243984 L 673 312 L 683.1626748576241 316.209517756016" stroke-miterlimit="10"/></g><g transform="translate(-230,-30) scale(1,1)"><g><path fill="none" stroke="none"/><text fill="#000000" stroke="none" font-family="Arial" font-size="13px" font-style="normal" font-weight="normal" text-decoration="none" x="664" y="366">«deploy»</text></g></g><g transform="translate(-230,-30) scale(1,1)"><path fill="none" stroke="#000000" d="M 896 413 L 920 413 L 920 312 L 847 312" stroke-miterlimit="10" stroke-dasharray="3"/></g><g transform="translate(-230,-30) scale(1,1)"><path fill="none" stroke="#000000" d="M 857.1626748576241 307.790482243984 L 847 312 L 857.1626748576241 316.209517756016" stroke-miterlimit="10"/></g><g transform="translate(-230,-30) scale(1,1)"><g><path fill="none" stroke="none"/><text fill="#000000" stroke="none" font-family="Arial" font-size="13px" font-style="normal" font-weight="normal" text-decoration="none" x="864" y="368">«deploy»</text></g></g><g transform="translate(-230,-30) scale(1,1)"><path fill="none" stroke="#000000" d="M 923 520 L 936 520 L 936 312 L 847 312" stroke-miterlimit="10" stroke-dasharray="3"/></g><g transform="translate(-230,-30) scale(1,1)"><path fill="none" stroke="#000000" d="M 857.1626748576241 307.790482243984 L 847 312 L 857.1626748576241 316.209517756016" stroke-miterlimit="10"/></g><g transform="translate(-230,-30) scale(1,1)"><g><path fill="none" stroke="none"/><text fill="#000000" stroke="none" font-family="Arial" font-size="13px" font-style="normal" font-weight="normal" text-decoration="none" x="879" y="477">«deploy»</text></g></g><g transform="translate(-230,-30) scale(1,1)"><path fill="none" stroke="#000000" d="M 1071 432 L 1104 432 L 1104 312 L 1051 312" stroke-miterlimit="10" stroke-dasharray="3"/></g><g transform="translate(-230,-30) scale(1,1)"><path fill="none" stroke="#000000" d="M 1061.162674857624 307.790482243984 L 1051 312 L 1061.162674857624 316.209517756016" stroke-miterlimit="10"/></g><g transform="translate(-230,-30) scale(1,1)"><g><path fill="none" stroke="none"/><text fill="#000000" stroke="none" font-family="Arial" font-size="13px" font-style="normal" font-weight="normal" text-decoration="none" x="1046" y="365">«deploy»</text></g></g><g transform="translate(-230,-30) scale(1,1)"><path fill="#C0C0C0" stroke="none" d="M 1207 305 L 1272.0908203125 305 L 1272.0908203125 338 L 1207 338" opacity="0.2"/></g><g transform="translate(-230,-30) scale(1,1)"><path fill="#C0C0C0" stroke="none" d="M 1207 305 L 1217 295 L 1282.0908203125 295 L 1272.0908203125 305" opacity="0.2"/></g><g transform="translate(-230,-30) scale(1,1)"><path fill="#C0C0C0" stroke="none" d="M 1282.0908203125 295 L 1272.0908203125 305 L 1272.0908203125 338 L 1282.0908203125 328" opacity="0.2"/></g><g transform="translate(-230,-30) scale(1,1)"><path fill="#ffffff" stroke="none" d="M 1200 298 L 1265.0908203125 298 L 1265.0908203125 331 L 1200 331"/></g><g transform="translate(-230,-30) scale(1,1)"><path fill="#ffffff" stroke="none" d="M 1200 298 L 1210 288 L 1275.0908203125 288 L 1265.0908203125 298"/></g><g transform="translate(-230,-30) scale(1,1)"><path fill="#ffffff" stroke="none" d="M 1275.0908203125 288 L 1265.0908203125 298 L 1265.0908203125 331 L 1275.0908203125 321"/></g><g transform="translate(-230,-30) scale(1,1)"><path fill="none" stroke="#000000" d="M 1200 298 L 1265.0908203125 298 L 1265.0908203125 331 L 1200 331 L 1200 298" stroke-miterlimit="10"/></g><g transform="translate(-230,-30) scale(1,1)"><path fill="none" stroke="#000000" d="M 1200 298 L 1210 288 L 1275.0908203125 288 L 1265.0908203125 298 L 1200 298" stroke-miterlimit="10"/></g><g transform="translate(-230,-30) scale(1,1)"><path fill="none" stroke="#000000" d="M 1275.0908203125 288 L 1265.0908203125 298 L 1265.0908203125 331 L 1275.0908203125 321 L 1275.0908203125 288" stroke-miterlimit="10"/></g><g transform="translate(-230,-30) scale(1,1)"><g><path fill="none" stroke="none"/><text fill="#000000" stroke="none" font-family="Arial" font-size="13px" font-style="normal" font-weight="bold" text-decoration="none" x="1206.3154296875" y="317.5">Observer</text></g></g><g transform="translate(-230,-30) scale(1,1)"><path fill="#C0C0C0" stroke="none" d="M 1215.462255859375 383 L 1242.9022558593751 383 L 1254.6622558593751 394.76 L 1254.6622558593751 432 L 1215.462255859375 432" opacity="0.2"/></g><g transform="translate(-230,-30) scale(1,1)"><path fill="#ffffff" stroke="none" d="M 1208.462255859375 376 L 1235.902255859375 376 L 1247.662255859375 387.75999999999993 L 1247.662255859375 425 L 1208.462255859375 425"/></g><g transform="translate(-230,-30) scale(1,1)"><path fill="none" stroke="#000000" d="M 1208.462255859375 376 L 1235.902255859375 376 L 1247.662255859375 387.75999999999993 L 1247.662255859375 425 L 1208.462255859375 425 L 1208.462255859375 376" stroke-miterlimit="10"/></g><g transform="translate(-230,-30) scale(1,1)"><path fill="none" stroke="#000000" d="M 1235.902255859375 376 L 1235.902255859375 387.75999999999993 L 1247.662255859375 387.75999999999993 L 1235.902255859375 376" stroke-miterlimit="10"/></g><g transform="translate(-230,-30) scale(1,1)"><g><path fill="none" stroke="none"/><text fill="#000000" stroke="none" font-family="Arial" font-size="13px" font-style="normal" font-weight="bold" text-decoration="none" x="1169.88916015625" y="444.5">AbstractSubject.php</text></g></g><g transform="translate(-230,-30) scale(1,1)"><path fill="#C0C0C0" stroke="none" d="M 1213.257666015625 495 L 1240.6976660156251 495 L 1252.4576660156251 506.76 L 1252.4576660156251 544 L 1213.257666015625 544" opacity="0.2"/></g><g transform="translate(-230,-30) scale(1,1)"><path fill="#ffffff" stroke="none" d="M 1206.257666015625 488 L 1233.697666015625 488 L 1245.457666015625 499.75999999999993 L 1245.457666015625 537 L 1206.257666015625 537"/></g><g transform="translate(-230,-30) scale(1,1)"><path fill="none" stroke="#000000" d="M 1206.257666015625 488 L 1233.697666015625 488 L 1245.457666015625 499.75999999999993 L 1245.457666015625 537 L 1206.257666015625 537 L 1206.257666015625 488" stroke-miterlimit="10"/></g><g transform="translate(-230,-30) scale(1,1)"><path fill="none" stroke="#000000" d="M 1233.697666015625 488 L 1233.697666015625 499.75999999999993 L 1245.457666015625 499.75999999999993 L 1233.697666015625 488" stroke-miterlimit="10"/></g><g transform="translate(-230,-30) scale(1,1)"><g><path fill="none" stroke="none"/><text fill="#000000" stroke="none" font-family="Arial" font-size="13px" font-style="normal" font-weight="bold" text-decoration="none" x="1161.1845703125" y="556.5">ObserverInterface.php</text></g></g><g transform="translate(-230,-30) scale(1,1)"><path fill="#C0C0C0" stroke="none" d="M 1216.1890625 607 L 1243.6290625000001 607 L 1255.3890625000001 618.76 L 1255.3890625000001 656 L 1216.1890625 656" opacity="0.2"/></g><g transform="translate(-230,-30) scale(1,1)"><path fill="#ffffff" stroke="none" d="M 1209.1890625 600 L 1236.6290625 600 L 1248.3890625 611.76 L 1248.3890625 649 L 1209.1890625 649"/></g><g transform="translate(-230,-30) scale(1,1)"><path fill="none" stroke="#000000" d="M 1209.1890625 600 L 1236.6290625 600 L 1248.3890625 611.76 L 1248.3890625 649 L 1209.1890625 649 L 1209.1890625 600" stroke-miterlimit="10"/></g><g transform="translate(-230,-30) scale(1,1)"><path fill="none" stroke="#000000" d="M 1236.6290625 600 L 1236.6290625 611.76 L 1248.3890625 611.76 L 1236.6290625 600" stroke-miterlimit="10"/></g><g transform="translate(-230,-30) scale(1,1)"><g><path fill="none" stroke="none"/><text fill="#000000" stroke="none" font-family="Arial" font-size="13px" font-style="normal" font-weight="bold" text-decoration="none" x="1169.16552734375" y="668.5">SubjectInterface.php</text></g></g><g transform="translate(-230,-30) scale(1,1)"><path fill="none" stroke="#000000" d="M 1296 416 L 1320 416 L 1320 312 L 1276 312" stroke-miterlimit="10" stroke-dasharray="3"/></g><g transform="translate(-230,-30) scale(1,1)"><path fill="none" stroke="#000000" d="M 1286.162674857624 307.790482243984 L 1276 312 L 1286.162674857624 316.209517756016" stroke-miterlimit="10"/></g><g transform="translate(-230,-30) scale(1,1)"><g><path fill="none" stroke="none"/><text fill="#000000" stroke="none" font-family="Arial" font-size="13px" font-style="normal" font-weight="normal" text-decoration="none" x="1264" y="370">«deploy»</text></g></g><g transform="translate(-230,-30) scale(1,1)"><path fill="none" stroke="#000000" d="M 1300 544 L 1336 544 L 1336 312 L 1276 312" stroke-miterlimit="10" stroke-dasharray="3"/></g><g transform="translate(-230,-30) scale(1,1)"><path fill="none" stroke="#000000" d="M 1286.162674857624 307.790482243984 L 1276 312 L 1286.162674857624 316.209517756016" stroke-miterlimit="10"/></g><g transform="translate(-230,-30) scale(1,1)"><g><path fill="none" stroke="none"/><text fill="#000000" stroke="none" font-family="Arial" font-size="13px" font-style="normal" font-weight="normal" text-decoration="none" x="1279" y="477">«deploy»</text></g></g><g transform="translate(-230,-30) scale(1,1)"><path fill="none" stroke="#000000" d="M 1298 632 L 1352 632 L 1352 312 L 1276 312" stroke-miterlimit="10" stroke-dasharray="3"/></g><g transform="translate(-230,-30) scale(1,1)"><path fill="none" stroke="#000000" d="M 1286.162674857624 307.790482243984 L 1276 312 L 1286.162674857624 316.209517756016" stroke-miterlimit="10"/></g><g transform="translate(-230,-30) scale(1,1)"><g><path fill="none" stroke="none"/><text fill="#000000" stroke="none" font-family="Arial" font-size="13px" font-style="normal" font-weight="normal" text-decoration="none" x="1287" y="597">«deploy»</text></g></g><g transform="translate(-230,-30) scale(1,1)"><path fill="#C0C0C0" stroke="none" d="M 1007.52451171875 495 L 1034.96451171875 495 L 1046.72451171875 506.76 L 1046.72451171875 544 L 1007.52451171875 544" opacity="0.2"/></g><g transform="translate(-230,-30) scale(1,1)"><path fill="#ffffff" stroke="none" d="M 1000.5245117187501 488 L 1027.96451171875 488 L 1039.72451171875 499.75999999999993 L 1039.72451171875 537 L 1000.5245117187501 537"/></g><g transform="translate(-230,-30) scale(1,1)"><path fill="none" stroke="#000000" d="M 1000.5245117187501 488 L 1027.96451171875 488 L 1039.72451171875 499.75999999999993 L 1039.72451171875 537 L 1000.5245117187501 537 L 1000.5245117187501 488" stroke-miterlimit="10"/></g><g transform="translate(-230,-30) scale(1,1)"><path fill="none" stroke="#000000" d="M 1027.96451171875 488 L 1027.96451171875 499.75999999999993 L 1039.72451171875 499.75999999999993 L 1027.96451171875 488" stroke-miterlimit="10"/></g><g transform="translate(-230,-30) scale(1,1)"><g><path fill="none" stroke="none"/><text fill="#000000" stroke="none" font-family="Arial" font-size="13px" font-style="normal" font-weight="bold" text-decoration="none" x="968.0927734375" y="556.5">ViewInterface.php</text></g></g><g transform="translate(-230,-30) scale(1,1)"><path fill="none" stroke="#000000" d="M 1080 528 L 1120 528 L 1120 312 L 1051 312" stroke-miterlimit="10" stroke-dasharray="3"/></g><g transform="translate(-230,-30) scale(1,1)"><path fill="none" stroke="#000000" d="M 1061.162674857624 307.790482243984 L 1051 312 L 1061.162674857624 316.209517756016" stroke-miterlimit="10"/></g><g transform="translate(-230,-30) scale(1,1)"><g><path fill="none" stroke="none"/><text fill="#000000" stroke="none" font-family="Arial" font-size="13px" font-style="normal" font-weight="normal" text-decoration="none" x="1063" y="477">«deploy»</text></g></g><g transform="translate(-230,-30) scale(1,1)"><path fill="#C0C0C0" stroke="none" d="M 615.7681640625 495 L 643.2081640625 495 L 654.9681640625 506.76 L 654.9681640625 544 L 615.7681640625 544" opacity="0.2"/></g><g transform="translate(-230,-30) scale(1,1)"><path fill="#ffffff" stroke="none" d="M 608.7681640625 488 L 636.2081640625 488 L 647.9681640625 499.76 L 647.9681640625 537 L 608.7681640625 537"/></g><g transform="translate(-230,-30) scale(1,1)"><path fill="none" stroke="#000000" d="M 608.7681640625 488 L 636.2081640625 488 L 647.9681640625 499.76 L 647.9681640625 537 L 608.7681640625 537 L 608.7681640625 488" stroke-miterlimit="10"/></g><g transform="translate(-230,-30) scale(1,1)"><path fill="none" stroke="#000000" d="M 636.2081640625 488 L 636.2081640625 499.76 L 647.9681640625 499.76 L 636.2081640625 488" stroke-miterlimit="10"/></g><g transform="translate(-230,-30) scale(1,1)"><g><path fill="none" stroke="none"/><text fill="#000000" stroke="none" font-family="Arial" font-size="13px" font-style="normal" font-weight="bold" text-decoration="none" x="562.247802734375" y="556.5">ControllerInterface.php</text></g></g><g transform="translate(-230,-30) scale(1,1)"><path fill="none" stroke="#000000" d="M 705 520 L 736 520 L 736 312 L 673 312" stroke-miterlimit="10" stroke-dasharray="3"/></g><g transform="translate(-230,-30) scale(1,1)"><path fill="none" stroke="#000000" d="M 683.1626748576241 307.790482243984 L 673 312 L 683.1626748576241 316.209517756016" stroke-miterlimit="10"/></g><g transform="translate(-230,-30) scale(1,1)"><g><path fill="none" stroke="none"/><text fill="#000000" stroke="none" font-family="Arial" font-size="13px" font-style="normal" font-weight="normal" text-decoration="none" x="670" y="477">«deploy»</text></g></g><g transform="translate(-230,-30) scale(1,1)"><path fill="none" stroke="#000000" d="M 1238 288 L 1238 184 L 432 184 L 432 287" stroke-miterlimit="10" stroke-dasharray="3"/></g><g transform="translate(-230,-30) scale(1,1)"><path fill="none" stroke="#000000" d="M 427.790482243984 276.83732514237585 L 432 287 L 436.209517756016 276.83732514237585" stroke-miterlimit="10"/></g><g transform="translate(-230,-30) scale(1,1)"><g><path fill="none" stroke="none"/><text fill="#000000" stroke="none" font-family="Arial" font-size="13px" font-style="normal" font-weight="normal" text-decoration="none" x="1175" y="260">«deploy»</text></g></g><g transform="translate(-230,-30) scale(1,1)"><path fill="#C0C0C0" stroke="none" d="M 399 801 L 446.72998046875 801 L 446.72998046875 834 L 399 834" opacity="0.2"/></g><g transform="translate(-230,-30) scale(1,1)"><path fill="#C0C0C0" stroke="none" d="M 399 801 L 409 791 L 456.72998046875 791 L 446.72998046875 801" opacity="0.2"/></g><g transform="translate(-230,-30) scale(1,1)"><path fill="#C0C0C0" stroke="none" d="M 456.72998046875 791 L 446.72998046875 801 L 446.72998046875 834 L 456.72998046875 824" opacity="0.2"/></g><g transform="translate(-230,-30) scale(1,1)"><path fill="#ffffff" stroke="none" d="M 392 794 L 439.72998046875 794 L 439.72998046875 827 L 392 827"/></g><g transform="translate(-230,-30) scale(1,1)"><path fill="#ffffff" stroke="none" d="M 392 794 L 402 784 L 449.72998046875 784 L 439.72998046875 794"/></g><g transform="translate(-230,-30) scale(1,1)"><path fill="#ffffff" stroke="none" d="M 449.72998046875 784 L 439.72998046875 794 L 439.72998046875 827 L 449.72998046875 817"/></g><g transform="translate(-230,-30) scale(1,1)"><path fill="none" stroke="#000000" d="M 392 794 L 439.72998046875 794 L 439.72998046875 827 L 392 827 L 392 794" stroke-miterlimit="10"/></g><g transform="translate(-230,-30) scale(1,1)"><path fill="none" stroke="#000000" d="M 392 794 L 402 784 L 449.72998046875 784 L 439.72998046875 794 L 392 794" stroke-miterlimit="10"/></g><g transform="translate(-230,-30) scale(1,1)"><path fill="none" stroke="#000000" d="M 449.72998046875 784 L 439.72998046875 794 L 439.72998046875 827 L 449.72998046875 817 L 449.72998046875 784" stroke-miterlimit="10"/></g><g transform="translate(-230,-30) scale(1,1)"><g><path fill="none" stroke="none"/><text fill="#000000" stroke="none" font-family="Arial" font-size="13px" font-style="normal" font-weight="bold" text-decoration="none" x="405.88818359375" y="813.5">test</text></g></g><g transform="translate(-230,-30) scale(1,1)"><path fill="#C0C0C0" stroke="none" d="M 575 801 L 645.11181640625 801 L 645.11181640625 834 L 575 834" opacity="0.2"/></g><g transform="translate(-230,-30) scale(1,1)"><path fill="#C0C0C0" stroke="none" d="M 575 801 L 585 791 L 655.11181640625 791 L 645.11181640625 801" opacity="0.2"/></g><g transform="translate(-230,-30) scale(1,1)"><path fill="#C0C0C0" stroke="none" d="M 655.11181640625 791 L 645.11181640625 801 L 645.11181640625 834 L 655.11181640625 824" opacity="0.2"/></g><g transform="translate(-230,-30) scale(1,1)"><path fill="#ffffff" stroke="none" d="M 568 794 L 638.11181640625 794 L 638.11181640625 827 L 568 827"/></g><g transform="translate(-230,-30) scale(1,1)"><path fill="#ffffff" stroke="none" d="M 568 794 L 578 784 L 648.11181640625 784 L 638.11181640625 794"/></g><g transform="translate(-230,-30) scale(1,1)"><path fill="#ffffff" stroke="none" d="M 648.11181640625 784 L 638.11181640625 794 L 638.11181640625 827 L 648.11181640625 817"/></g><g transform="translate(-230,-30) scale(1,1)"><path fill="none" stroke="#000000" d="M 568 794 L 638.11181640625 794 L 638.11181640625 827 L 568 827 L 568 794" stroke-miterlimit="10"/></g><g transform="translate(-230,-30) scale(1,1)"><path fill="none" stroke="#000000" d="M 568 794 L 578 784 L 648.11181640625 784 L 638.11181640625 794 L 568 794" stroke-miterlimit="10"/></g><g transform="translate(-230,-30) scale(1,1)"><path fill="none" stroke="#000000" d="M 648.11181640625 784 L 638.11181640625 794 L 638.11181640625 827 L 648.11181640625 817 L 648.11181640625 784" stroke-miterlimit="10"/></g><g transform="translate(-230,-30) scale(1,1)"><g><path fill="none" stroke="none"/><text fill="#000000" stroke="none" font-family="Arial" font-size="13px" font-style="normal" font-weight="bold" text-decoration="none" x="575.378662109375" y="813.5">Controller</text></g></g><g transform="translate(-230,-30) scale(1,1)"><path fill="#C0C0C0" stroke="none" d="M 783 801 L 830.72998046875 801 L 830.72998046875 834 L 783 834" opacity="0.2"/></g><g transform="translate(-230,-30) scale(1,1)"><path fill="#C0C0C0" stroke="none" d="M 783 801 L 793 791 L 840.72998046875 791 L 830.72998046875 801" opacity="0.2"/></g><g transform="translate(-230,-30) scale(1,1)"><path fill="#C0C0C0" stroke="none" d="M 840.72998046875 791 L 830.72998046875 801 L 830.72998046875 834 L 840.72998046875 824" opacity="0.2"/></g><g transform="translate(-230,-30) scale(1,1)"><path fill="#ffffff" stroke="none" d="M 776 794 L 823.72998046875 794 L 823.72998046875 827 L 776 827"/></g><g transform="translate(-230,-30) scale(1,1)"><path fill="#ffffff" stroke="none" d="M 776 794 L 786 784 L 833.72998046875 784 L 823.72998046875 794"/></g><g transform="translate(-230,-30) scale(1,1)"><path fill="#ffffff" stroke="none" d="M 833.72998046875 784 L 823.72998046875 794 L 823.72998046875 827 L 833.72998046875 817"/></g><g transform="translate(-230,-30) scale(1,1)"><path fill="none" stroke="#000000" d="M 776 794 L 823.72998046875 794 L 823.72998046875 827 L 776 827 L 776 794" stroke-miterlimit="10"/></g><g transform="translate(-230,-30) scale(1,1)"><path fill="none" stroke="#000000" d="M 776 794 L 786 784 L 833.72998046875 784 L 823.72998046875 794 L 776 794" stroke-miterlimit="10"/></g><g transform="translate(-230,-30) scale(1,1)"><path fill="none" stroke="#000000" d="M 833.72998046875 784 L 823.72998046875 794 L 823.72998046875 827 L 833.72998046875 817 L 833.72998046875 784" stroke-miterlimit="10"/></g><g transform="translate(-230,-30) scale(1,1)"><g><path fill="none" stroke="none"/><text fill="#000000" stroke="none" font-family="Arial" font-size="13px" font-style="normal" font-weight="bold" text-decoration="none" x="782.661376953125" y="813.5">Model</text></g></g><g transform="translate(-230,-30) scale(1,1)"><path fill="#C0C0C0" stroke="none" d="M 983 801 L 1030.72998046875 801 L 1030.72998046875 834 L 983 834" opacity="0.2"/></g><g transform="translate(-230,-30) scale(1,1)"><path fill="#C0C0C0" stroke="none" d="M 983 801 L 993 791 L 1040.72998046875 791 L 1030.72998046875 801" opacity="0.2"/></g><g transform="translate(-230,-30) scale(1,1)"><path fill="#C0C0C0" stroke="none" d="M 1040.72998046875 791 L 1030.72998046875 801 L 1030.72998046875 834 L 1040.72998046875 824" opacity="0.2"/></g><g transform="translate(-230,-30) scale(1,1)"><path fill="#ffffff" stroke="none" d="M 976 794 L 1023.72998046875 794 L 1023.72998046875 827 L 976 827"/></g><g transform="translate(-230,-30) scale(1,1)"><path fill="#ffffff" stroke="none" d="M 976 794 L 986 784 L 1033.72998046875 784 L 1023.72998046875 794"/></g><g transform="translate(-230,-30) scale(1,1)"><path fill="#ffffff" stroke="none" d="M 1033.72998046875 784 L 1023.72998046875 794 L 1023.72998046875 827 L 1033.72998046875 817"/></g><g transform="translate(-230,-30) scale(1,1)"><path fill="none" stroke="#000000" d="M 976 794 L 1023.72998046875 794 L 1023.72998046875 827 L 976 827 L 976 794" stroke-miterlimit="10"/></g><g transform="translate(-230,-30) scale(1,1)"><path fill="none" stroke="#000000" d="M 976 794 L 986 784 L 1033.72998046875 784 L 1023.72998046875 794 L 976 794" stroke-miterlimit="10"/></g><g transform="translate(-230,-30) scale(1,1)"><path fill="none" stroke="#000000" d="M 1033.72998046875 784 L 1023.72998046875 794 L 1023.72998046875 827 L 1033.72998046875 817 L 1033.72998046875 784" stroke-miterlimit="10"/></g><g transform="translate(-230,-30) scale(1,1)"><g><path fill="none" stroke="none"/><text fill="#000000" stroke="none" font-family="Arial" font-size="13px" font-style="normal" font-weight="bold" text-decoration="none" x="986.2763671875" y="813.5">View</text></g></g><g transform="translate(-230,-30) scale(1,1)"><path fill="#C0C0C0" stroke="none" d="M 584.120458984375 895 L 611.560458984375 895 L 623.320458984375 906.76 L 623.320458984375 944 L 584.120458984375 944" opacity="0.2"/></g><g transform="translate(-230,-30) scale(1,1)"><path fill="#ffffff" stroke="none" d="M 577.120458984375 888 L 604.560458984375 888 L 616.320458984375 899.76 L 616.320458984375 937 L 577.120458984375 937"/></g><g transform="translate(-230,-30) scale(1,1)"><path fill="none" stroke="#000000" d="M 577.120458984375 888 L 604.560458984375 888 L 616.320458984375 899.76 L 616.320458984375 937 L 577.120458984375 937 L 577.120458984375 888" stroke-miterlimit="10"/></g><g transform="translate(-230,-30) scale(1,1)"><path fill="none" stroke="#000000" d="M 604.560458984375 888 L 604.560458984375 899.76 L 616.320458984375 899.76 L 604.560458984375 888" stroke-miterlimit="10"/></g><g transform="translate(-230,-30) scale(1,1)"><g><path fill="none" stroke="none"/><text fill="#000000" stroke="none" font-family="Arial" font-size="13px" font-style="normal" font-weight="bold" text-decoration="none" x="529.168701171875" y="956.5">UCDControllerTest.php</text></g></g><g transform="translate(-230,-30) scale(1,1)"><path fill="#C0C0C0" stroke="none" d="M 791.70908203125 895 L 819.14908203125 895 L 830.90908203125 906.76 L 830.90908203125 944 L 791.70908203125 944" opacity="0.2"/></g><g transform="translate(-230,-30) scale(1,1)"><path fill="#ffffff" stroke="none" d="M 784.70908203125 888 L 812.14908203125 888 L 823.90908203125 899.76 L 823.90908203125 937 L 784.70908203125 937"/></g><g transform="translate(-230,-30) scale(1,1)"><path fill="none" stroke="#000000" d="M 784.70908203125 888 L 812.14908203125 888 L 823.90908203125 899.76 L 823.90908203125 937 L 784.70908203125 937 L 784.70908203125 888" stroke-miterlimit="10"/></g><g transform="translate(-230,-30) scale(1,1)"><path fill="none" stroke="#000000" d="M 812.14908203125 888 L 812.14908203125 899.76 L 823.90908203125 899.76 L 812.14908203125 888" stroke-miterlimit="10"/></g><g transform="translate(-230,-30) scale(1,1)"><g><path fill="none" stroke="none"/><text fill="#000000" stroke="none" font-family="Arial" font-size="13px" font-style="normal" font-weight="bold" text-decoration="none" x="730.24462890625" y="956.5">RepositoryModelTest.php</text></g></g><g transform="translate(-230,-30) scale(1,1)"><path fill="#C0C0C0" stroke="none" d="M 991.876806640625 895 L 1019.3168066406249 895 L 1031.076806640625 906.76 L 1031.076806640625 944 L 991.876806640625 944" opacity="0.2"/></g><g transform="translate(-230,-30) scale(1,1)"><path fill="#ffffff" stroke="none" d="M 984.8768066406251 888 L 1012.3168066406249 888 L 1024.076806640625 899.76 L 1024.076806640625 937 L 984.8768066406251 937"/></g><g transform="translate(-230,-30) scale(1,1)"><path fill="none" stroke="#000000" d="M 984.8768066406251 888 L 1012.3168066406249 888 L 1024.076806640625 899.76 L 1024.076806640625 937 L 984.8768066406251 937 L 984.8768066406251 888" stroke-miterlimit="10"/></g><g transform="translate(-230,-30) scale(1,1)"><path fill="none" stroke="#000000" d="M 1012.3168066406249 888 L 1012.3168066406249 899.76 L 1024.076806640625 899.76 L 1012.3168066406249 888" stroke-miterlimit="10"/></g><g transform="translate(-230,-30) scale(1,1)"><g><path fill="none" stroke="none"/><text fill="#000000" stroke="none" font-family="Arial" font-size="13px" font-style="normal" font-weight="bold" text-decoration="none" x="951.013671875" y="956.5">UCDViewTest.php</text></g></g><g transform="translate(-230,-30) scale(1,1)"><path fill="#C0C0C0" stroke="none" d="M 581.133154296875 1015 L 608.573154296875 1015 L 620.333154296875 1026.76 L 620.333154296875 1064 L 581.133154296875 1064" opacity="0.2"/></g><g transform="translate(-230,-30) scale(1,1)"><path fill="#ffffff" stroke="none" d="M 574.133154296875 1008 L 601.573154296875 1008 L 613.333154296875 1019.76 L 613.333154296875 1057 L 574.133154296875 1057"/></g><g transform="translate(-230,-30) scale(1,1)"><path fill="none" stroke="#000000" d="M 574.133154296875 1008 L 601.573154296875 1008 L 613.333154296875 1019.76 L 613.333154296875 1057 L 574.133154296875 1057 L 574.133154296875 1008" stroke-miterlimit="10"/></g><g transform="translate(-230,-30) scale(1,1)"><path fill="none" stroke="#000000" d="M 601.573154296875 1008 L 601.573154296875 1019.76 L 613.333154296875 1019.76 L 601.573154296875 1008" stroke-miterlimit="10"/></g><g transform="translate(-230,-30) scale(1,1)"><g><path fill="none" stroke="none"/><text fill="#000000" stroke="none" font-family="Arial" font-size="13px" font-style="normal" font-weight="bold" text-decoration="none" x="514.971435546875" y="1076.5">ControllerInterfaceTest.php</text></g></g><g transform="translate(-230,-30) scale(1,1)"><path fill="#C0C0C0" stroke="none" d="M 786.804052734375 1015 L 814.244052734375 1015 L 826.004052734375 1026.76 L 826.004052734375 1064 L 786.804052734375 1064" opacity="0.2"/></g><g transform="translate(-230,-30) scale(1,1)"><path fill="#ffffff" stroke="none" d="M 779.804052734375 1008 L 807.244052734375 1008 L 819.004052734375 1019.76 L 819.004052734375 1057 L 779.804052734375 1057"/></g><g transform="translate(-230,-30) scale(1,1)"><path fill="none" stroke="#000000" d="M 779.804052734375 1008 L 807.244052734375 1008 L 819.004052734375 1019.76 L 819.004052734375 1057 L 779.804052734375 1057 L 779.804052734375 1008" stroke-miterlimit="10"/></g><g transform="translate(-230,-30) scale(1,1)"><path fill="none" stroke="#000000" d="M 807.244052734375 1008 L 807.244052734375 1019.76 L 819.004052734375 1019.76 L 807.244052734375 1008" stroke-miterlimit="10"/></g><g transform="translate(-230,-30) scale(1,1)"><g><path fill="none" stroke="none"/><text fill="#000000" stroke="none" font-family="Arial" font-size="13px" font-style="normal" font-weight="bold" text-decoration="none" x="700.04736328125" y="1076.5">RepositoryModelInterfaceTest.php</text></g></g><g transform="translate(-230,-30) scale(1,1)"><path fill="#C0C0C0" stroke="none" d="M 988.889501953125 1015 L 1016.329501953125 1015 L 1028.089501953125 1026.76 L 1028.089501953125 1064 L 988.889501953125 1064" opacity="0.2"/></g><g transform="translate(-230,-30) scale(1,1)"><path fill="#ffffff" stroke="none" d="M 981.889501953125 1008 L 1009.329501953125 1008 L 1021.089501953125 1019.76 L 1021.089501953125 1057 L 981.889501953125 1057"/></g><g transform="translate(-230,-30) scale(1,1)"><path fill="none" stroke="#000000" d="M 981.889501953125 1008 L 1009.329501953125 1008 L 1021.089501953125 1019.76 L 1021.089501953125 1057 L 981.889501953125 1057 L 981.889501953125 1008" stroke-miterlimit="10"/></g><g transform="translate(-230,-30) scale(1,1)"><path fill="none" stroke="#000000" d="M 1009.329501953125 1008 L 1009.329501953125 1019.76 L 1021.089501953125 1019.76 L 1009.329501953125 1008" stroke-miterlimit="10"/></g><g transform="translate(-230,-30) scale(1,1)"><g><path fill="none" stroke="none"/><text fill="#000000" stroke="none" font-family="Arial" font-size="13px" font-style="normal" font-weight="bold" text-decoration="none" x="936.81640625" y="1076.5">ViewInterfaceTest.php</text></g></g><g transform="translate(-230,-30) scale(1,1)"><path fill="none" stroke="#000000" d="M 673 912 L 688 912 L 688 800 L 649 800" stroke-miterlimit="10" stroke-dasharray="3"/></g><g transform="translate(-230,-30) scale(1,1)"><path fill="none" stroke="#000000" d="M 659.1626748576241 795.790482243984 L 649 800 L 659.1626748576241 804.209517756016" stroke-miterlimit="10"/></g><g transform="translate(-230,-30) scale(1,1)"><g><path fill="none" stroke="none"/><text fill="#000000" stroke="none" font-family="Arial" font-size="13px" font-style="normal" font-weight="normal" text-decoration="none" x="632" y="862">«deploy»</text></g></g><g transform="translate(-230,-30) scale(1,1)"><path fill="none" stroke="#000000" d="M 683 1032 L 704 1032 L 704 800 L 649 800" stroke-miterlimit="10" stroke-dasharray="3"/></g><g transform="translate(-230,-30) scale(1,1)"><path fill="none" stroke="#000000" d="M 659.1626748576241 795.790482243984 L 649 800 L 659.1626748576241 804.209517756016" stroke-miterlimit="10"/></g><g transform="translate(-230,-30) scale(1,1)"><g><path fill="none" stroke="none"/><text fill="#000000" stroke="none" font-family="Arial" font-size="13px" font-style="normal" font-weight="normal" text-decoration="none" x="639" y="1005">«deploy»</text></g></g><g transform="translate(-230,-30) scale(1,1)"><path fill="none" stroke="#000000" d="M 889 920 L 912 920 L 912 800 L 835 800" stroke-miterlimit="10" stroke-dasharray="3"/></g><g transform="translate(-230,-30) scale(1,1)"><path fill="none" stroke="#000000" d="M 845.1626748576241 795.790482243984 L 835 800 L 845.1626748576241 804.209517756016" stroke-miterlimit="10"/></g><g transform="translate(-230,-30) scale(1,1)"><g><path fill="none" stroke="none"/><text fill="#000000" stroke="none" font-family="Arial" font-size="13px" font-style="normal" font-weight="normal" text-decoration="none" x="856" y="866">«deploy»</text></g></g><g transform="translate(-230,-30) scale(1,1)"><path fill="none" stroke="#000000" d="M 911 1032 L 928 1032 L 928 800 L 835 800" stroke-miterlimit="10" stroke-dasharray="3"/></g><g transform="translate(-230,-30) scale(1,1)"><path fill="none" stroke="#000000" d="M 845.1626748576241 795.790482243984 L 835 800 L 845.1626748576241 804.209517756016" stroke-miterlimit="10"/></g><g transform="translate(-230,-30) scale(1,1)"><g><path fill="none" stroke="none"/><text fill="#000000" stroke="none" font-family="Arial" font-size="13px" font-style="normal" font-weight="normal" text-decoration="none" x="871" y="1005">«deploy»</text></g></g><g transform="translate(-230,-30) scale(1,1)"><path fill="none" stroke="#000000" d="M 1065 920 L 1088 920 L 1088 800 L 1035 800" stroke-miterlimit="10" stroke-dasharray="3"/></g><g transform="translate(-230,-30) scale(1,1)"><path fill="none" stroke="#000000" d="M 1045.162674857624 795.790482243984 L 1035 800 L 1045.162674857624 804.209517756016" stroke-miterlimit="10"/></g><g transform="translate(-230,-30) scale(1,1)"><g><path fill="none" stroke="none"/><text fill="#000000" stroke="none" font-family="Arial" font-size="13px" font-style="normal" font-weight="normal" text-decoration="none" x="1032" y="866">«deploy»</text></g></g><g transform="translate(-230,-30) scale(1,1)"><path fill="none" stroke="#000000" d="M 1075 1032 L 1104 1032 L 1104 800 L 1035 800" stroke-miterlimit="10" stroke-dasharray="3"/></g><g transform="translate(-230,-30) scale(1,1)"><path fill="none" stroke="#000000" d="M 1045.162674857624 795.790482243984 L 1035 800 L 1045.162674857624 804.209517756016" stroke-miterlimit="10"/></g><g transform="translate(-230,-30) scale(1,1)"><g><path fill="none" stroke="none"/><text fill="#000000" stroke="none" font-family="Arial" font-size="13px" font-style="normal" font-weight="normal" text-decoration="none" x="1047" y="1005">«deploy»</text></g></g><g transform="translate(-230,-30) scale(1,1)"><path fill="none" stroke="#000000" d="M 608 784 L 608 736 L 416 736 L 416 784" stroke-miterlimit="10" stroke-dasharray="3"/></g><g transform="translate(-230,-30) scale(1,1)"><path fill="none" stroke="#000000" d="M 411.790482243984 773.8373251423759 L 416 784 L 420.209517756016 773.8373251423759" stroke-miterlimit="10"/></g><g transform="translate(-230,-30) scale(1,1)"><g><path fill="none" stroke="none"/><text fill="#000000" stroke="none" font-family="Arial" font-size="13px" font-style="normal" font-weight="normal" text-decoration="none" x="535" y="764">«deploy»</text></g></g><g transform="translate(-230,-30) scale(1,1)"><path fill="none" stroke="#000000" d="M 805 784 L 805 720 L 416 720 L 416 784" stroke-miterlimit="10" stroke-dasharray="3"/></g><g transform="translate(-230,-30) scale(1,1)"><path fill="none" stroke="#000000" d="M 411.790482243984 773.8373251423759 L 416 784 L 420.209517756016 773.8373251423759" stroke-miterlimit="10"/></g><g transform="translate(-230,-30) scale(1,1)"><g><path fill="none" stroke="none"/><text fill="#000000" stroke="none" font-family="Arial" font-size="13px" font-style="normal" font-weight="normal" text-decoration="none" x="719" y="764">«deploy»</text></g></g><g transform="translate(-230,-30) scale(1,1)"><path fill="none" stroke="#000000" d="M 1005 784 L 1005 704 L 416 704 L 416 784" stroke-miterlimit="10" stroke-dasharray="3"/></g><g transform="translate(-230,-30) scale(1,1)"><path fill="none" stroke="#000000" d="M 411.790482243984 773.8373251423759 L 416 784 L 420.209517756016 773.8373251423759" stroke-miterlimit="10"/></g><g transform="translate(-230,-30) scale(1,1)"><g><path fill="none" stroke="none"/><text fill="#000000" stroke="none" font-family="Arial" font-size="13px" font-style="normal" font-weight="normal" text-decoration="none" x="935" y="764">«deploy»</text></g></g><g transform="translate(-230,-30) scale(1,1)"><path fill="#C0C0C0" stroke="none" d="M 399 1225 L 446.72998046875 1225 L 446.72998046875 1258 L 399 1258" opacity="0.2"/></g><g transform="translate(-230,-30) scale(1,1)"><path fill="#C0C0C0" stroke="none" d="M 399 1225 L 409 1215 L 456.72998046875 1215 L 446.72998046875 1225" opacity="0.2"/></g><g transform="translate(-230,-30) scale(1,1)"><path fill="#C0C0C0" stroke="none" d="M 456.72998046875 1215 L 446.72998046875 1225 L 446.72998046875 1258 L 456.72998046875 1248" opacity="0.2"/></g><g transform="translate(-230,-30) scale(1,1)"><path fill="#ffffff" stroke="none" d="M 392 1218 L 439.72998046875 1218 L 439.72998046875 1251 L 392 1251"/></g><g transform="translate(-230,-30) scale(1,1)"><path fill="#ffffff" stroke="none" d="M 392 1218 L 402 1208 L 449.72998046875 1208 L 439.72998046875 1218"/></g><g transform="translate(-230,-30) scale(1,1)"><path fill="#ffffff" stroke="none" d="M 449.72998046875 1208 L 439.72998046875 1218 L 439.72998046875 1251 L 449.72998046875 1241"/></g><g transform="translate(-230,-30) scale(1,1)"><path fill="none" stroke="#000000" d="M 392 1218 L 439.72998046875 1218 L 439.72998046875 1251 L 392 1251 L 392 1218" stroke-miterlimit="10"/></g><g transform="translate(-230,-30) scale(1,1)"><path fill="none" stroke="#000000" d="M 392 1218 L 402 1208 L 449.72998046875 1208 L 439.72998046875 1218 L 392 1218" stroke-miterlimit="10"/></g><g transform="translate(-230,-30) scale(1,1)"><path fill="none" stroke="#000000" d="M 449.72998046875 1208 L 439.72998046875 1218 L 439.72998046875 1251 L 449.72998046875 1241 L 449.72998046875 1208" stroke-miterlimit="10"/></g><g transform="translate(-230,-30) scale(1,1)"><g><path fill="none" stroke="none"/><text fill="#000000" stroke="none" font-family="Arial" font-size="13px" font-style="normal" font-weight="bold" text-decoration="none" x="399.3818359375" y="1237.5">public</text></g></g><g transform="translate(-230,-30) scale(1,1)"><path fill="#C0C0C0" stroke="none" d="M 781.530859375 1207 L 808.970859375 1207 L 820.730859375 1218.76 L 820.730859375 1256 L 781.530859375 1256" opacity="0.2"/></g><g transform="translate(-230,-30) scale(1,1)"><path fill="#ffffff" stroke="none" d="M 774.530859375 1200 L 801.970859375 1200 L 813.730859375 1211.76 L 813.730859375 1249 L 774.530859375 1249"/></g><g transform="translate(-230,-30) scale(1,1)"><path fill="none" stroke="#000000" d="M 774.530859375 1200 L 801.970859375 1200 L 813.730859375 1211.76 L 813.730859375 1249 L 774.530859375 1249 L 774.530859375 1200" stroke-miterlimit="10"/></g><g transform="translate(-230,-30) scale(1,1)"><path fill="none" stroke="#000000" d="M 801.970859375 1200 L 801.970859375 1211.76 L 813.730859375 1211.76 L 801.970859375 1200" stroke-miterlimit="10"/></g><g transform="translate(-230,-30) scale(1,1)"><g><path fill="none" stroke="none"/><text fill="#000000" stroke="none" font-family="Arial" font-size="13px" font-style="normal" font-weight="bold" text-decoration="none" x="766.674072265625" y="1268.5">.htaccess</text></g></g><g transform="translate(-230,-30) scale(1,1)"><path fill="#C0C0C0" stroke="none" d="M 574.594091796875 1207 L 602.034091796875 1207 L 613.794091796875 1218.76 L 613.794091796875 1256 L 574.594091796875 1256" opacity="0.2"/></g><g transform="translate(-230,-30) scale(1,1)"><path fill="#ffffff" stroke="none" d="M 567.594091796875 1200 L 595.034091796875 1200 L 606.794091796875 1211.76 L 606.794091796875 1249 L 567.594091796875 1249"/></g><g transform="translate(-230,-30) scale(1,1)"><path fill="none" stroke="#000000" d="M 567.594091796875 1200 L 595.034091796875 1200 L 606.794091796875 1211.76 L 606.794091796875 1249 L 567.594091796875 1249 L 567.594091796875 1200" stroke-miterlimit="10"/></g><g transform="translate(-230,-30) scale(1,1)"><path fill="none" stroke="#000000" d="M 595.034091796875 1200 L 595.034091796875 1211.76 L 606.794091796875 1211.76 L 595.034091796875 1200" stroke-miterlimit="10"/></g><g transform="translate(-230,-30) scale(1,1)"><g><path fill="none" stroke="none"/><text fill="#000000" stroke="none" font-family="Arial" font-size="13px" font-style="normal" font-weight="bold" text-decoration="none" x="559.004150390625" y="1268.5">index.php</text></g></g><g transform="translate(-230,-30) scale(1,1)"><path fill="none" stroke="#000000" d="M 587 1200 L 587 1144 L 416 1144 L 416 1208" stroke-miterlimit="10" stroke-dasharray="3"/></g><g transform="translate(-230,-30) scale(1,1)"><path fill="none" stroke="#000000" d="M 411.790482243984 1197.837325142376 L 416 1208 L 420.209517756016 1197.837325142376" stroke-miterlimit="10"/></g><g transform="translate(-230,-30) scale(1,1)"><g><path fill="none" stroke="none"/><text fill="#000000" stroke="none" font-family="Arial" font-size="13px" font-style="normal" font-weight="normal" text-decoration="none" x="511" y="1172">«deploy»</text></g></g><g transform="translate(-230,-30) scale(1,1)"><path fill="none" stroke="#000000" d="M 794 1200 L 794 1128 L 416 1128 L 416 1208" stroke-miterlimit="10" stroke-dasharray="3"/></g><g transform="translate(-230,-30) scale(1,1)"><path fill="none" stroke="#000000" d="M 411.790482243984 1197.837325142376 L 416 1208 L 420.209517756016 1197.837325142376" stroke-miterlimit="10"/></g><g transform="translate(-230,-30) scale(1,1)"><g><path fill="none" stroke="none"/><text fill="#000000" stroke="none" font-family="Arial" font-size="13px" font-style="normal" font-weight="normal" text-decoration="none" x="719" y="1180">«deploy»</text></g></g><g transform="translate(-230,-30) scale(1,1)"><path fill="#C0C0C0" stroke="none" d="M 407 1393 L 458.341796875 1393 L 458.341796875 1426 L 407 1426" opacity="0.2"/></g><g transform="translate(-230,-30) scale(1,1)"><path fill="#C0C0C0" stroke="none" d="M 407 1393 L 417 1383 L 468.341796875 1383 L 458.341796875 1393" opacity="0.2"/></g><g transform="translate(-230,-30) scale(1,1)"><path fill="#C0C0C0" stroke="none" d="M 468.341796875 1383 L 458.341796875 1393 L 458.341796875 1426 L 468.341796875 1416" opacity="0.2"/></g><g transform="translate(-230,-30) scale(1,1)"><path fill="#ffffff" stroke="none" d="M 400 1386 L 451.341796875 1386 L 451.341796875 1419 L 400 1419"/></g><g transform="translate(-230,-30) scale(1,1)"><path fill="#ffffff" stroke="none" d="M 400 1386 L 410 1376 L 461.341796875 1376 L 451.341796875 1386"/></g><g transform="translate(-230,-30) scale(1,1)"><path fill="#ffffff" stroke="none" d="M 461.341796875 1376 L 451.341796875 1386 L 451.341796875 1419 L 461.341796875 1409"/></g><g transform="translate(-230,-30) scale(1,1)"><path fill="none" stroke="#000000" d="M 400 1386 L 451.341796875 1386 L 451.341796875 1419 L 400 1419 L 400 1386" stroke-miterlimit="10"/></g><g transform="translate(-230,-30) scale(1,1)"><path fill="none" stroke="#000000" d="M 400 1386 L 410 1376 L 461.341796875 1376 L 451.341796875 1386 L 400 1386" stroke-miterlimit="10"/></g><g transform="translate(-230,-30) scale(1,1)"><path fill="none" stroke="#000000" d="M 461.341796875 1376 L 451.341796875 1386 L 451.341796875 1419 L 461.341796875 1409 L 461.341796875 1376" stroke-miterlimit="10"/></g><g transform="translate(-230,-30) scale(1,1)"><g><path fill="none" stroke="none"/><text fill="#000000" stroke="none" font-family="Arial" font-size="13px" font-style="normal" font-weight="bold" text-decoration="none" x="406.29638671875" y="1405.5">vendor</text></g></g><g transform="translate(-230,-30) scale(1,1)"><path fill="#C0C0C0" stroke="none" d="M 574.133154296875 1375 L 601.573154296875 1375 L 613.333154296875 1386.76 L 613.333154296875 1424 L 574.133154296875 1424" opacity="0.2"/></g><g transform="translate(-230,-30) scale(1,1)"><path fill="#ffffff" stroke="none" d="M 567.133154296875 1368 L 594.573154296875 1368 L 606.333154296875 1379.76 L 606.333154296875 1417 L 567.133154296875 1417"/></g><g transform="translate(-230,-30) scale(1,1)"><path fill="none" stroke="#000000" d="M 567.133154296875 1368 L 594.573154296875 1368 L 606.333154296875 1379.76 L 606.333154296875 1417 L 567.133154296875 1417 L 567.133154296875 1368" stroke-miterlimit="10"/></g><g transform="translate(-230,-30) scale(1,1)"><path fill="none" stroke="#000000" d="M 594.573154296875 1368 L 594.573154296875 1379.76 L 606.333154296875 1379.76 L 594.573154296875 1368" stroke-miterlimit="10"/></g><g transform="translate(-230,-30) scale(1,1)"><g><path fill="none" stroke="none"/><text fill="#000000" stroke="none" font-family="Arial" font-size="13px" font-style="normal" font-weight="bold" text-decoration="none" x="544.464111328125" y="1436.5">composer.json</text></g></g><g transform="translate(-230,-30) scale(1,1)"><path fill="#C0C0C0" stroke="none" d="M 781.777685546875 1375 L 809.217685546875 1375 L 820.977685546875 1386.76 L 820.977685546875 1424 L 781.777685546875 1424" opacity="0.2"/></g><g transform="translate(-230,-30) scale(1,1)"><path fill="#ffffff" stroke="none" d="M 774.777685546875 1368 L 802.217685546875 1368 L 813.977685546875 1379.76 L 813.977685546875 1417 L 774.777685546875 1417"/></g><g transform="translate(-230,-30) scale(1,1)"><path fill="none" stroke="#000000" d="M 774.777685546875 1368 L 802.217685546875 1368 L 813.977685546875 1379.76 L 813.977685546875 1417 L 774.777685546875 1417 L 774.777685546875 1368" stroke-miterlimit="10"/></g><g transform="translate(-230,-30) scale(1,1)"><path fill="none" stroke="#000000" d="M 802.217685546875 1368 L 802.217685546875 1379.76 L 813.977685546875 1379.76 L 802.217685546875 1368" stroke-miterlimit="10"/></g><g transform="translate(-230,-30) scale(1,1)"><g><path fill="none" stroke="none"/><text fill="#000000" stroke="none" font-family="Arial" font-size="13px" font-style="normal" font-weight="bold" text-decoration="none" x="752.4736328125" y="1436.5">composer.lock</text></g></g><g transform="translate(-230,-30) scale(1,1)"><path fill="#C0C0C0" stroke="none" d="M 1216.0572265625 1375 L 1243.4972265625001 1375 L 1255.2572265625001 1386.76 L 1255.2572265625001 1424 L 1216.0572265625 1424" opacity="0.2"/></g><g transform="translate(-230,-30) scale(1,1)"><path fill="#ffffff" stroke="none" d="M 1209.0572265625 1368 L 1236.4972265625 1368 L 1248.2572265625 1379.76 L 1248.2572265625 1417 L 1209.0572265625 1417"/></g><g transform="translate(-230,-30) scale(1,1)"><path fill="none" stroke="#000000" d="M 1209.0572265625 1368 L 1236.4972265625 1368 L 1248.2572265625 1379.76 L 1248.2572265625 1417 L 1209.0572265625 1417 L 1209.0572265625 1368" stroke-miterlimit="10"/></g><g transform="translate(-230,-30) scale(1,1)"><path fill="none" stroke="#000000" d="M 1236.4972265625 1368 L 1236.4972265625 1379.76 L 1248.2572265625 1379.76 L 1236.4972265625 1368" stroke-miterlimit="10"/></g><g transform="translate(-230,-30) scale(1,1)"><g><path fill="none" stroke="none"/><text fill="#000000" stroke="none" font-family="Arial" font-size="13px" font-style="normal" font-weight="bold" text-decoration="none" x="1199.4072265625" y="1436.5">.travis.yml</text></g></g><g transform="translate(-230,-30) scale(1,1)"><path fill="#C0C0C0" stroke="none" d="M 1212.7291015625 1199 L 1240.1691015625001 1199 L 1251.9291015625001 1210.76 L 1251.9291015625001 1248 L 1212.7291015625 1248" opacity="0.2"/></g><g transform="translate(-230,-30) scale(1,1)"><path fill="#ffffff" stroke="none" d="M 1205.7291015625 1192 L 1233.1691015625 1192 L 1244.9291015625 1203.76 L 1244.9291015625 1241 L 1205.7291015625 1241"/></g><g transform="translate(-230,-30) scale(1,1)"><path fill="none" stroke="#000000" d="M 1205.7291015625 1192 L 1233.1691015625 1192 L 1244.9291015625 1203.76 L 1244.9291015625 1241 L 1205.7291015625 1241 L 1205.7291015625 1192" stroke-miterlimit="10"/></g><g transform="translate(-230,-30) scale(1,1)"><path fill="none" stroke="#000000" d="M 1233.1691015625 1192 L 1233.1691015625 1203.76 L 1244.9291015625 1203.76 L 1233.1691015625 1192" stroke-miterlimit="10"/></g><g transform="translate(-230,-30) scale(1,1)"><g><path fill="none" stroke="none"/><text fill="#000000" stroke="none" font-family="Arial" font-size="13px" font-style="normal" font-weight="bold" text-decoration="none" x="1192.089599609375" y="1260.5">phpunit.xml</text></g></g><g transform="translate(-230,-30) scale(1,1)"><path fill="#C0C0C0" stroke="none" d="M 991.6236328125 1199 L 1019.0636328125 1199 L 1030.8236328125 1210.76 L 1030.8236328125 1248 L 991.6236328125 1248" opacity="0.2"/></g><g transform="translate(-230,-30) scale(1,1)"><path fill="#ffffff" stroke="none" d="M 984.6236328125 1192 L 1012.0636328125 1192 L 1023.8236328125 1203.76 L 1023.8236328125 1241 L 984.6236328125 1241"/></g><g transform="translate(-230,-30) scale(1,1)"><path fill="none" stroke="#000000" d="M 984.6236328125 1192 L 1012.0636328125 1192 L 1023.8236328125 1203.76 L 1023.8236328125 1241 L 984.6236328125 1241 L 984.6236328125 1192" stroke-miterlimit="10"/></g><g transform="translate(-230,-30) scale(1,1)"><path fill="none" stroke="#000000" d="M 1012.0636328125 1192 L 1012.0636328125 1203.76 L 1023.8236328125 1203.76 L 1012.0636328125 1192" stroke-miterlimit="10"/></g><g transform="translate(-230,-30) scale(1,1)"><g><path fill="none" stroke="none"/><text fill="#000000" stroke="none" font-family="Arial" font-size="13px" font-style="normal" font-weight="bold" text-decoration="none" x="965.5791015625" y="1260.5">README.md</text></g></g><g transform="translate(-230,-30) scale(1,1)"><path fill="#C0C0C0" stroke="none" d="M 988.0708984375 1375 L 1015.5108984375 1375 L 1027.2708984375 1386.76 L 1027.2708984375 1424 L 988.0708984375 1424" opacity="0.2"/></g><g transform="translate(-230,-30) scale(1,1)"><path fill="#ffffff" stroke="none" d="M 981.0708984375 1368 L 1008.5108984375 1368 L 1020.2708984375 1379.76 L 1020.2708984375 1417 L 981.0708984375 1417"/></g><g transform="translate(-230,-30) scale(1,1)"><path fill="none" stroke="#000000" d="M 981.0708984375 1368 L 1008.5108984375 1368 L 1020.2708984375 1379.76 L 1020.2708984375 1417 L 981.0708984375 1417 L 981.0708984375 1368" stroke-miterlimit="10"/></g><g transform="translate(-230,-30) scale(1,1)"><path fill="none" stroke="#000000" d="M 1008.5108984375 1368 L 1008.5108984375 1379.76 L 1020.2708984375 1379.76 L 1008.5108984375 1368" stroke-miterlimit="10"/></g><g transform="translate(-230,-30) scale(1,1)"><g><path fill="none" stroke="none"/><text fill="#000000" stroke="none" font-family="Arial" font-size="13px" font-style="normal" font-weight="bold" text-decoration="none" x="972.85546875" y="1436.5">LICENSE</text></g></g><g transform="translate(-230,-30) scale(1,1)"><path fill="none" stroke="#000000" d="M 392 1224 L 360 1224 L 360 309 L 392 309" stroke-miterlimit="10" stroke-dasharray="3"/></g><g transform="translate(-230,-30) scale(1,1)"><path fill="none" stroke="#000000" d="M 381.83732514237585 313.209517756016 L 392 309 L 381.83732514237585 304.790482243984" stroke-miterlimit="10"/></g><g transform="translate(-230,-30) scale(1,1)"><g><path fill="none" stroke="none"/><text fill="#000000" stroke="none" font-family="Arial" font-size="13px" font-style="normal" font-weight="normal" text-decoration="none" x="313" y="772">«use»</text></g></g><g transform="translate(-230,-30) scale(1,1)"><path fill="none" stroke="#000000" d="M 1224 1368 L 1224 1266" stroke-miterlimit="10" stroke-dasharray="3"/></g><g transform="translate(-230,-30) scale(1,1)"><path fill="none" stroke="#000000" d="M 1228.2095177560159 1276.162674857624 L 1224 1266 L 1219.7904822439841 1276.162674857624" stroke-miterlimit="10"/></g><g transform="translate(-230,-30) scale(1,1)"><g><path fill="none" stroke="none"/><text fill="#000000" stroke="none" font-family="Arial" font-size="13px" font-style="normal" font-weight="normal" text-decoration="none" x="1177" y="1323">«use»</text></g></g><g transform="translate(-230,-30) scale(1,1)"><path fill="none" stroke="#000000" d="M 1216 1442 L 1216 1464 L 584 1464 L 584 1442" stroke-miterlimit="10" stroke-dasharray="3"/></g><g transform="translate(-230,-30) scale(1,1)"><path fill="none" stroke="#000000" d="M 588.209517756016 1452.162674857624 L 584 1442 L 579.790482243984 1452.162674857624" stroke-miterlimit="10"/></g><g transform="translate(-230,-30) scale(1,1)"><g><path fill="none" stroke="none"/><text fill="#000000" stroke="none" font-family="Arial" font-size="13px" font-style="normal" font-weight="normal" text-decoration="none" x="882" y="1452">«use»</text></g></g><g transform="translate(-230,-30) scale(1,1)"><path fill="none" stroke="#000000" d="M 1224 1192 L 1224 1112 L 416 1112 L 416 828" stroke-miterlimit="10" stroke-dasharray="3"/></g><g transform="translate(-230,-30) scale(1,1)"><path fill="none" stroke="#000000" d="M 420.209517756016 838.1626748576241 L 416 828 L 411.790482243984 838.1626748576241" stroke-miterlimit="10"/></g></g></svg>